<svg width="38" height="37" viewBox="0 0 38 37" fill="none" xmlns="http://www.w3.org/2000/svg">
<path d="M26.8608 17.9157H25.1301V16.185H23.3995V14.443H21.6574V12.7123H19.9268V10.9703H18.1961V9.2396H16.454V7.50894H14.7234V28.3224H16.454V26.5918H18.1961V24.8611H19.9268V23.1191H21.6574V21.3884H28.6028V19.6464H26.8608V17.9157ZM18.1961 21.3884H16.454V14.443H18.1961V21.3884Z" fill="#077F97"/>
<path d="M35.5385 14.4439H37.2805V23.12H35.5385V14.4439Z" fill="#077F97"/>
<path d="M33.8057 23.1187H35.5364V26.5914H33.8057V23.1187Z" fill="#077F97"/>
<path d="M33.8057 10.9705H35.5364V14.4432H33.8057V10.9705Z" fill="#077F97"/>
<path d="M32.0761 26.5929H33.8068V30.0656H32.0761V26.5929Z" fill="#077F97"/>
<path d="M32.0761 7.50894H33.8068V10.9703H32.0761V7.50894Z" fill="#077F97"/>
<path d="M30.3355 30.0655H32.0775V31.7961H30.3355V30.0655Z" fill="#077F97"/>
<path d="M30.3355 5.76751H32.0775V7.50955H30.3355V5.76751Z" fill="#077F97"/>
<path d="M26.8605 31.7951H30.3332V33.5257H26.8605V31.7951Z" fill="#077F97"/>
<path d="M26.8605 4.03634H30.3332V5.767H26.8605V4.03634Z" fill="#077F97"/>
<path d="M23.4013 33.5262H26.8627V35.2683H23.4013V33.5262Z" fill="#077F97"/>
<path d="M23.4013 2.30596H26.8627V4.03662H23.4013V2.30596Z" fill="#077F97"/>
<path d="M14.7234 35.2692H23.3995V36.9999H14.7234V35.2692Z" fill="#077F97"/>
<path d="M14.7234 0.563734H23.3995V2.30578H14.7234V0.563734Z" fill="#077F97"/>
<path d="M11.2516 33.5262H14.7243V35.2683H11.2516V33.5262Z" fill="#077F97"/>
<path d="M11.2516 2.30596H14.7243V4.03662H11.2516V2.30596Z" fill="#077F97"/>
<path d="M7.77817 31.7951H11.2509V33.5257H7.77817V31.7951Z" fill="#077F97"/>
<path d="M7.77817 4.03634H11.2509V5.767H7.77817V4.03634Z" fill="#077F97"/>
<path d="M6.04858 30.0655H7.77925V31.7961H6.04858V30.0655Z" fill="#077F97"/>
<path d="M6.04858 5.76751H7.77925V7.50955H6.04858V5.76751Z" fill="#077F97"/>
<path d="M4.30478 26.5929H6.04683V30.0656H4.30478V26.5929Z" fill="#077F97"/>
<path d="M4.30478 7.50894H6.04683V10.9703H4.30478V7.50894Z" fill="#077F97"/>
<path d="M2.57519 23.1187H4.30585V26.5914H2.57519V23.1187Z" fill="#077F97"/>
<path d="M2.57519 10.9705H4.30585V14.4432H2.57519V10.9705Z" fill="#077F97"/>
<path d="M0.845601 14.4439H2.57626V23.12H0.845601V14.4439Z" fill="#077F97"/>
<path d="M26.0152 17.352H24.2845V15.6213H22.5539V13.8792H20.8118V12.1486H19.0812V10.4065H17.3505V8.67587H15.6084V6.94521H13.8778V27.7587H15.6084V26.028H17.3505V24.2974H19.0812V22.5553H20.8118V20.8247H27.7572V19.0826H26.0152V17.352ZM17.3505 20.8247H15.6084V13.8792H17.3505V20.8247Z" fill="url(#paint0_linear_144_274)"/>
<path d="M34.6929 13.8801H36.4349V22.5562H34.6929V13.8801Z" fill="url(#paint1_linear_144_274)"/>
<path d="M32.9601 22.5549H34.6908V26.0277H32.9601V22.5549Z" fill="url(#paint2_linear_144_274)"/>
<path d="M32.9601 10.4068H34.6908V13.8795H32.9601V10.4068Z" fill="url(#paint3_linear_144_274)"/>
<path d="M31.2305 26.0291H32.9612V29.5018H31.2305V26.0291Z" fill="url(#paint4_linear_144_274)"/>
<path d="M31.2305 6.94521H32.9612V10.4065H31.2305V6.94521Z" fill="url(#paint5_linear_144_274)"/>
<path d="M29.4899 29.5017H31.2319V31.2324H29.4899V29.5017Z" fill="url(#paint6_linear_144_274)"/>
<path d="M29.4899 5.20377H31.2319V6.94582H29.4899V5.20377Z" fill="url(#paint7_linear_144_274)"/>
<path d="M26.0149 31.2313H29.4876V32.962H26.0149V31.2313Z" fill="url(#paint8_linear_144_274)"/>
<path d="M26.0149 3.4726H29.4876V5.20327H26.0149V3.4726Z" fill="url(#paint9_linear_144_274)"/>
<path d="M22.5557 32.9625H26.0171V34.7045H22.5557V32.9625Z" fill="url(#paint10_linear_144_274)"/>
<path d="M22.5557 1.74223H26.0171V3.47289H22.5557V1.74223Z" fill="url(#paint11_linear_144_274)"/>
<path d="M13.8778 34.7055H22.5539V36.4362H13.8778V34.7055Z" fill="url(#paint12_linear_144_274)"/>
<path d="M13.8778 0H22.5539V1.74205H13.8778V0Z" fill="url(#paint13_linear_144_274)"/>
<path d="M10.406 32.9625H13.8787V34.7045H10.406V32.9625Z" fill="url(#paint14_linear_144_274)"/>
<path d="M10.406 1.74223H13.8787V3.47289H10.406V1.74223Z" fill="url(#paint15_linear_144_274)"/>
<path d="M6.93257 31.2313H10.4053V32.962H6.93257V31.2313Z" fill="url(#paint16_linear_144_274)"/>
<path d="M6.93257 3.4726H10.4053V5.20327H6.93257V3.4726Z" fill="url(#paint17_linear_144_274)"/>
<path d="M5.20298 29.5017H6.93365V31.2324H5.20298V29.5017Z" fill="url(#paint18_linear_144_274)"/>
<path d="M5.20298 5.20377H6.93365V6.94582H5.20298V5.20377Z" fill="url(#paint19_linear_144_274)"/>
<path d="M3.45918 26.0291H5.20123V29.5018H3.45918V26.0291Z" fill="url(#paint20_linear_144_274)"/>
<path d="M3.45918 6.94521H5.20123V10.4065H3.45918V6.94521Z" fill="url(#paint21_linear_144_274)"/>
<path d="M1.72959 22.5549H3.46025V26.0277H1.72959V22.5549Z" fill="url(#paint22_linear_144_274)"/>
<path d="M1.72959 10.4068H3.46025V13.8795H1.72959V10.4068Z" fill="url(#paint23_linear_144_274)"/>
<path d="M0 13.8801H1.73066V22.5562H0V13.8801Z" fill="url(#paint24_linear_144_274)"/>
<defs>
<linearGradient id="paint0_linear_144_274" x1="18.6403" y1="0" x2="18.6403" y2="36.9999" gradientUnits="userSpaceOnUse">
<stop stop-color="#C2FF00"/>
<stop offset="1" stop-color="#4DC9E2"/>
</linearGradient>
<linearGradient id="paint1_linear_144_274" x1="18.6403" y1="0" x2="18.6403" y2="36.9999" gradientUnits="userSpaceOnUse">
<stop stop-color="#C2FF00"/>
<stop offset="1" stop-color="#4DC9E2"/>
</linearGradient>
<linearGradient id="paint2_linear_144_274" x1="18.6403" y1="0" x2="18.6403" y2="36.9999" gradientUnits="userSpaceOnUse">
<stop stop-color="#C2FF00"/>
<stop offset="1" stop-color="#4DC9E2"/>
</linearGradient>
<linearGradient id="paint3_linear_144_274" x1="18.6403" y1="0" x2="18.6403" y2="36.9999" gradientUnits="userSpaceOnUse">
<stop stop-color="#C2FF00"/>
<stop offset="1" stop-color="#4DC9E2"/>
</linearGradient>
<linearGradient id="paint4_linear_144_274" x1="18.6403" y1="0" x2="18.6403" y2="36.9999" gradientUnits="userSpaceOnUse">
<stop stop-color="#C2FF00"/>
<stop offset="1" stop-color="#4DC9E2"/>
</linearGradient>
<linearGradient id="paint5_linear_144_274" x1="18.6403" y1="0" x2="18.6403" y2="36.9999" gradientUnits="userSpaceOnUse">
<stop stop-color="#C2FF00"/>
<stop offset="1" stop-color="#4DC9E2"/>
</linearGradient>
<linearGradient id="paint6_linear_144_274" x1="18.6403" y1="0" x2="18.6403" y2="36.9999" gradientUnits="userSpaceOnUse">
<stop stop-color="#C2FF00"/>
<stop offset="1" stop-color="#4DC9E2"/>
</linearGradient>
<linearGradient id="paint7_linear_144_274" x1="18.6403" y1="0" x2="18.6403" y2="36.9999" gradientUnits="userSpaceOnUse">
<stop stop-color="#C2FF00"/>
<stop offset="1" stop-color="#4DC9E2"/>
</linearGradient>
<linearGradient id="paint8_linear_144_274" x1="18.6403" y1="0" x2="18.6403" y2="36.9999" gradientUnits="userSpaceOnUse">
<stop stop-color="#C2FF00"/>
<stop offset="1" stop-color="#4DC9E2"/>
</linearGradient>
<linearGradient id="paint9_linear_144_274" x1="18.6403" y1="0" x2="18.6403" y2="36.9999" gradientUnits="userSpaceOnUse">
<stop stop-color="#C2FF00"/>
<stop offset="1" stop-color="#4DC9E2"/>
</linearGradient>
<linearGradient id="paint10_linear_144_274" x1="18.6403" y1="0" x2="18.6403" y2="36.9999" gradientUnits="userSpaceOnUse">
<stop stop-color="#C2FF00"/>
<stop offset="1" stop-color="#4DC9E2"/>
</linearGradient>
<linearGradient id="paint11_linear_144_274" x1="18.6403" y1="0" x2="18.6403" y2="36.9999" gradientUnits="userSpaceOnUse">
<stop stop-color="#C2FF00"/>
<stop offset="1" stop-color="#4DC9E2"/>
</linearGradient>
<linearGradient id="paint12_linear_144_274" x1="18.6403" y1="0" x2="18.6403" y2="36.9999" gradientUnits="userSpaceOnUse">
<stop stop-color="#C2FF00"/>
<stop offset="1" stop-color="#4DC9E2"/>
</linearGradient>
<linearGradient id="paint13_linear_144_274" x1="18.6403" y1="0" x2="18.6403" y2="36.9999" gradientUnits="userSpaceOnUse">
<stop stop-color="#C2FF00"/>
<stop offset="1" stop-color="#4DC9E2"/>
</linearGradient>
<linearGradient id="paint14_linear_144_274" x1="18.6403" y1="0" x2="18.6403" y2="36.9999" gradientUnits="userSpaceOnUse">
<stop stop-color="#C2FF00"/>
<stop offset="1" stop-color="#4DC9E2"/>
</linearGradient>
<linearGradient id="paint15_linear_144_274" x1="18.6403" y1="0" x2="18.6403" y2="36.9999" gradientUnits="userSpaceOnUse">
<stop stop-color="#C2FF00"/>
<stop offset="1" stop-color="#4DC9E2"/>
</linearGradient>
<linearGradient id="paint16_linear_144_274" x1="18.6403" y1="0" x2="18.6403" y2="36.9999" gradientUnits="userSpaceOnUse">
<stop stop-color="#C2FF00"/>
<stop offset="1" stop-color="#4DC9E2"/>
</linearGradient>
<linearGradient id="paint17_linear_144_274" x1="18.6403" y1="0" x2="18.6403" y2="36.9999" gradientUnits="userSpaceOnUse">
<stop stop-color="#C2FF00"/>
<stop offset="1" stop-color="#4DC9E2"/>
</linearGradient>
<linearGradient id="paint18_linear_144_274" x1="18.6403" y1="0" x2="18.6403" y2="36.9999" gradientUnits="userSpaceOnUse">
<stop stop-color="#C2FF00"/>
<stop offset="1" stop-color="#4DC9E2"/>
</linearGradient>
<linearGradient id="paint19_linear_144_274" x1="18.6403" y1="0" x2="18.6403" y2="36.9999" gradientUnits="userSpaceOnUse">
<stop stop-color="#C2FF00"/>
<stop offset="1" stop-color="#4DC9E2"/>
</linearGradient>
<linearGradient id="paint20_linear_144_274" x1="18.6403" y1="0" x2="18.6403" y2="36.9999" gradientUnits="userSpaceOnUse">
<stop stop-color="#C2FF00"/>
<stop offset="1" stop-color="#4DC9E2"/>
</linearGradient>
<linearGradient id="paint21_linear_144_274" x1="18.6403" y1="0" x2="18.6403" y2="36.9999" gradientUnits="userSpaceOnUse">
<stop stop-color="#C2FF00"/>
<stop offset="1" stop-color="#4DC9E2"/>
</linearGradient>
<linearGradient id="paint22_linear_144_274" x1="18.6403" y1="0" x2="18.6403" y2="36.9999" gradientUnits="userSpaceOnUse">
<stop stop-color="#C2FF00"/>
<stop offset="1" stop-color="#4DC9E2"/>
</linearGradient>
<linearGradient id="paint23_linear_144_274" x1="18.6403" y1="0" x2="18.6403" y2="36.9999" gradientUnits="userSpaceOnUse">
<stop stop-color="#C2FF00"/>
<stop offset="1" stop-color="#4DC9E2"/>
</linearGradient>
<linearGradient id="paint24_linear_144_274" x1="18.6403" y1="0" x2="18.6403" y2="36.9999" gradientUnits="userSpaceOnUse">
<stop stop-color="#C2FF00"/>
<stop offset="1" stop-color="#4DC9E2"/>
</linearGradient>
</defs>
</svg>
