<svg width="38" height="37" viewBox="0 0 38 37" fill="none" xmlns="http://www.w3.org/2000/svg">
<path d="M21.6597 4.03627V2.29417H19.929V4.03627H18.1983V2.29417H16.4562V4.03627H0.845623V5.76698H2.57633V7.50907H4.31843V24.8503H6.04914V7.50907H32.0781V24.8503H33.8088V7.50907H35.5395V5.76698H37.2816V4.03627H21.6597Z" fill="#077F97"/>
<path d="M30.3363 24.8505H32.0784V26.5926H30.3363V24.8505Z" fill="#077F97"/>
<path d="M7.77838 26.5928V28.3235H18.1968V33.527H19.9275V28.3235H30.3345V26.5928H7.77838Z" fill="#077F97"/>
<path d="M11.2514 21.3895V19.6474H12.9821V17.9167H11.2514V9.24036H9.52065V23.1202H28.604V21.3895H11.2514Z" fill="#077F97"/>
<path d="M25.1316 10.97H26.8737V12.7121H25.1316V10.97Z" fill="#077F97"/>
<path d="M23.402 12.7131H25.1327V14.4438H23.402V12.7131Z" fill="#077F97"/>
<path d="M21.6581 14.4443H23.4002V16.1864H21.6581V14.4443Z" fill="#077F97"/>
<path d="M19.9285 33.5271H21.6592V35.2692H19.9285V33.5271Z" fill="#077F97"/>
<path d="M19.9285 16.1857H21.6592V17.9165H19.9285V16.1857Z" fill="#077F97"/>
<path d="M18.1973 35.2694H19.928V37.0001H18.1973V35.2694Z" fill="#077F97"/>
<path d="M18.1973 17.917H19.928V19.6477H18.1973V17.917Z" fill="#077F97"/>
<path d="M18.1973 0.563749H19.928V2.29446H18.1973V0.563749Z" fill="#077F97"/>
<path d="M16.4566 33.5271H18.1987V35.2692H16.4566V33.5271Z" fill="#077F97"/>
<path d="M16.4566 16.1857H18.1987V17.9165H16.4566V16.1857Z" fill="#077F97"/>
<path d="M14.7238 14.4443H16.4545V16.1864H14.7238V14.4443Z" fill="#077F97"/>
<path d="M12.9831 16.1857H14.7252V17.9165H12.9831V16.1857Z" fill="#077F97"/>
<path d="M6.04874 24.8505H7.77945V26.5926H6.04874V24.8505Z" fill="#077F97"/>
<path d="M20.8141 3.47252V1.73042H19.0833V3.47252H17.3526V1.73042H15.6105V3.47252H0V5.20323H1.73071V6.94532H3.4728V24.2866H5.20351V6.94532H31.2325V24.2866H32.9632V6.94532H34.6939V5.20323H36.436V3.47252H20.8141Z" fill="url(#paint0_linear_144_234)"/>
<path d="M29.4907 24.2868H31.2328V26.0289H29.4907V24.2868Z" fill="url(#paint1_linear_144_234)"/>
<path d="M6.93276 26.029V27.7597H17.3512V32.9633H19.0819V27.7597H29.4889V26.029H6.93276Z" fill="url(#paint2_linear_144_234)"/>
<path d="M10.4057 20.8257V19.0836H12.1364V17.3529H10.4057V8.67661H8.67503V22.5564H27.7584V20.8257H10.4057Z" fill="url(#paint3_linear_144_234)"/>
<path d="M24.286 10.4062H26.0281V12.1483H24.286V10.4062Z" fill="url(#paint4_linear_144_234)"/>
<path d="M22.5563 12.1493H24.287V13.88H22.5563V12.1493Z" fill="url(#paint5_linear_144_234)"/>
<path d="M20.8125 13.8805H22.5546V15.6226H20.8125V13.8805Z" fill="url(#paint6_linear_144_234)"/>
<path d="M19.0829 32.9634H20.8136V34.7055H19.0829V32.9634Z" fill="url(#paint7_linear_144_234)"/>
<path d="M19.0829 15.622H20.8136V17.3527H19.0829V15.622Z" fill="url(#paint8_linear_144_234)"/>
<path d="M17.3516 34.7056H19.0823V36.4363H17.3516V34.7056Z" fill="url(#paint9_linear_144_234)"/>
<path d="M17.3516 17.3532H19.0823V19.0839H17.3516V17.3532Z" fill="url(#paint10_linear_144_234)"/>
<path d="M17.3516 0H19.0823V1.73071H17.3516V0Z" fill="url(#paint11_linear_144_234)"/>
<path d="M15.6109 32.9634H17.353V34.7055H15.6109V32.9634Z" fill="url(#paint12_linear_144_234)"/>
<path d="M15.6109 15.622H17.353V17.3527H15.6109V15.622Z" fill="url(#paint13_linear_144_234)"/>
<path d="M13.8782 13.8805H15.6089V15.6226H13.8782V13.8805Z" fill="url(#paint14_linear_144_234)"/>
<path d="M12.1375 15.622H13.8796V17.3527H12.1375V15.622Z" fill="url(#paint15_linear_144_234)"/>
<path d="M5.20312 24.2868H6.93383V26.0289H5.20312V24.2868Z" fill="url(#paint16_linear_144_234)"/>
<defs>
<linearGradient id="paint0_linear_144_234" x1="18.6408" y1="0" x2="18.6408" y2="37.0001" gradientUnits="userSpaceOnUse">
<stop stop-color="#C2FF00"/>
<stop offset="1" stop-color="#4DC9E2"/>
</linearGradient>
<linearGradient id="paint1_linear_144_234" x1="18.6408" y1="0" x2="18.6408" y2="37.0001" gradientUnits="userSpaceOnUse">
<stop stop-color="#C2FF00"/>
<stop offset="1" stop-color="#4DC9E2"/>
</linearGradient>
<linearGradient id="paint2_linear_144_234" x1="18.6408" y1="0" x2="18.6408" y2="37.0001" gradientUnits="userSpaceOnUse">
<stop stop-color="#C2FF00"/>
<stop offset="1" stop-color="#4DC9E2"/>
</linearGradient>
<linearGradient id="paint3_linear_144_234" x1="18.6408" y1="0" x2="18.6408" y2="37.0001" gradientUnits="userSpaceOnUse">
<stop stop-color="#C2FF00"/>
<stop offset="1" stop-color="#4DC9E2"/>
</linearGradient>
<linearGradient id="paint4_linear_144_234" x1="18.6408" y1="0" x2="18.6408" y2="37.0001" gradientUnits="userSpaceOnUse">
<stop stop-color="#C2FF00"/>
<stop offset="1" stop-color="#4DC9E2"/>
</linearGradient>
<linearGradient id="paint5_linear_144_234" x1="18.6408" y1="0" x2="18.6408" y2="37.0001" gradientUnits="userSpaceOnUse">
<stop stop-color="#C2FF00"/>
<stop offset="1" stop-color="#4DC9E2"/>
</linearGradient>
<linearGradient id="paint6_linear_144_234" x1="18.6408" y1="0" x2="18.6408" y2="37.0001" gradientUnits="userSpaceOnUse">
<stop stop-color="#C2FF00"/>
<stop offset="1" stop-color="#4DC9E2"/>
</linearGradient>
<linearGradient id="paint7_linear_144_234" x1="18.6408" y1="0" x2="18.6408" y2="37.0001" gradientUnits="userSpaceOnUse">
<stop stop-color="#C2FF00"/>
<stop offset="1" stop-color="#4DC9E2"/>
</linearGradient>
<linearGradient id="paint8_linear_144_234" x1="18.6408" y1="0" x2="18.6408" y2="37.0001" gradientUnits="userSpaceOnUse">
<stop stop-color="#C2FF00"/>
<stop offset="1" stop-color="#4DC9E2"/>
</linearGradient>
<linearGradient id="paint9_linear_144_234" x1="18.6408" y1="0" x2="18.6408" y2="37.0001" gradientUnits="userSpaceOnUse">
<stop stop-color="#C2FF00"/>
<stop offset="1" stop-color="#4DC9E2"/>
</linearGradient>
<linearGradient id="paint10_linear_144_234" x1="18.6408" y1="0" x2="18.6408" y2="37.0001" gradientUnits="userSpaceOnUse">
<stop stop-color="#C2FF00"/>
<stop offset="1" stop-color="#4DC9E2"/>
</linearGradient>
<linearGradient id="paint11_linear_144_234" x1="18.6408" y1="0" x2="18.6408" y2="37.0001" gradientUnits="userSpaceOnUse">
<stop stop-color="#C2FF00"/>
<stop offset="1" stop-color="#4DC9E2"/>
</linearGradient>
<linearGradient id="paint12_linear_144_234" x1="18.6408" y1="0" x2="18.6408" y2="37.0001" gradientUnits="userSpaceOnUse">
<stop stop-color="#C2FF00"/>
<stop offset="1" stop-color="#4DC9E2"/>
</linearGradient>
<linearGradient id="paint13_linear_144_234" x1="18.6408" y1="0" x2="18.6408" y2="37.0001" gradientUnits="userSpaceOnUse">
<stop stop-color="#C2FF00"/>
<stop offset="1" stop-color="#4DC9E2"/>
</linearGradient>
<linearGradient id="paint14_linear_144_234" x1="18.6408" y1="0" x2="18.6408" y2="37.0001" gradientUnits="userSpaceOnUse">
<stop stop-color="#C2FF00"/>
<stop offset="1" stop-color="#4DC9E2"/>
</linearGradient>
<linearGradient id="paint15_linear_144_234" x1="18.6408" y1="0" x2="18.6408" y2="37.0001" gradientUnits="userSpaceOnUse">
<stop stop-color="#C2FF00"/>
<stop offset="1" stop-color="#4DC9E2"/>
</linearGradient>
<linearGradient id="paint16_linear_144_234" x1="18.6408" y1="0" x2="18.6408" y2="37.0001" gradientUnits="userSpaceOnUse">
<stop stop-color="#C2FF00"/>
<stop offset="1" stop-color="#4DC9E2"/>
</linearGradient>
</defs>
</svg>
