<svg width="38" height="37" viewBox="0 0 38 37" fill="none" xmlns="http://www.w3.org/2000/svg">
<path d="M35.5394 14.4443H37.2815V23.1206H35.5394V14.4443Z" fill="#077F97"/>
<path d="M33.8082 23.1193H35.5389V26.5921H33.8082V23.1193Z" fill="#077F97"/>
<path d="M33.8082 10.9708H35.5389V14.4436H33.8082V10.9708Z" fill="#077F97"/>
<path d="M32.077 26.5928H33.8077V30.0542H32.077V26.5928Z" fill="#077F97"/>
<path d="M32.077 7.50914H33.8077V10.9706H32.077V7.50914Z" fill="#077F97"/>
<path d="M30.3363 30.0544H32.0784V31.7965H30.3363V30.0544Z" fill="#077F97"/>
<path d="M30.3363 5.76766H32.0784V7.50976H30.3363V5.76766Z" fill="#077F97"/>
<path d="M26.8628 31.7959H30.3356V33.5266H26.8628V31.7959Z" fill="#077F97"/>
<path d="M26.8628 4.03645H30.3356V5.76715H26.8628V4.03645Z" fill="#077F97"/>
<path d="M25.1332 24.8505H26.8639V26.5926H25.1332V24.8505Z" fill="#077F97"/>
<path d="M11.2514 17.9162H12.9821V16.1741H25.1312V17.9162H26.8619V24.8504H28.604V10.9706H26.8619V9.23985H25.1312V7.50914H12.9821V9.23985H11.2514V10.9706H9.52065V24.8504H11.2514V17.9162Z" fill="#077F97"/>
<path d="M23.402 33.5271H26.8634V35.2692H23.402V33.5271Z" fill="#077F97"/>
<path d="M23.402 26.5928H25.1327V28.3235H23.402V26.5928Z" fill="#077F97"/>
<path d="M23.402 19.6466H25.1327V23.1194H23.402V19.6466Z" fill="#077F97"/>
<path d="M23.402 2.29417H26.8634V4.03627H23.402V2.29417Z" fill="#077F97"/>
<path d="M14.7254 35.2694H23.4017V37.0001H14.7254V35.2694Z" fill="#077F97"/>
<path d="M14.7254 28.3232H23.4017V30.0539H14.7254V28.3232Z" fill="#077F97"/>
<path d="M16.4566 24.8505H21.6601V26.5926H16.4566V24.8505Z" fill="#077F97"/>
<path d="M14.7254 0.563749H23.4017V2.29446H14.7254V0.563749Z" fill="#077F97"/>
<path d="M11.2534 33.5271H14.7262V35.2692H11.2534V33.5271Z" fill="#077F97"/>
<path d="M12.9831 26.5928H14.7252V28.3235H12.9831V26.5928Z" fill="#077F97"/>
<path d="M12.9831 19.6466H14.7252V23.1194H12.9831V19.6466Z" fill="#077F97"/>
<path d="M11.2534 2.29417H14.7262V4.03627H11.2534V2.29417Z" fill="#077F97"/>
<path d="M11.2534 24.8505H12.9842V26.5926H11.2534V24.8505Z" fill="#077F97"/>
<path d="M7.77996 31.7959H11.2528V33.5266H7.77996V31.7959Z" fill="#077F97"/>
<path d="M7.77996 4.03645H11.2528V5.76715H7.77996V4.03645Z" fill="#077F97"/>
<path d="M6.04874 30.0544H7.77945V31.7965H6.04874V30.0544Z" fill="#077F97"/>
<path d="M6.04874 5.76766H7.77945V7.50976H6.04874V5.76766Z" fill="#077F97"/>
<path d="M4.31911 26.5928H6.04982V30.0542H4.31911V26.5928Z" fill="#077F97"/>
<path d="M4.31911 7.50914H6.04982V10.9706H4.31911V7.50914Z" fill="#077F97"/>
<path d="M2.57526 23.1193H4.31735V26.5921H2.57526V23.1193Z" fill="#077F97"/>
<path d="M2.57526 10.9708H4.31735V14.4436H2.57526V10.9708Z" fill="#077F97"/>
<path d="M0.845623 14.4443H2.57633V23.1206H0.845623V14.4443Z" fill="#077F97"/>
<path d="M34.6938 13.8805H36.4359V22.5568H34.6938V13.8805Z" fill="url(#paint0_linear_144_265)"/>
<path d="M32.9626 22.5555H34.6933V26.0284H32.9626V22.5555Z" fill="url(#paint1_linear_144_265)"/>
<path d="M32.9626 10.407H34.6933V13.8798H32.9626V10.407Z" fill="url(#paint2_linear_144_265)"/>
<path d="M31.2314 26.029H32.9621V29.4904H31.2314V26.029Z" fill="url(#paint3_linear_144_265)"/>
<path d="M31.2314 6.94539H32.9621V10.4068H31.2314V6.94539Z" fill="url(#paint4_linear_144_265)"/>
<path d="M29.4907 29.4907H31.2328V31.2328H29.4907V29.4907Z" fill="url(#paint5_linear_144_265)"/>
<path d="M29.4907 5.20391H31.2328V6.94601H29.4907V5.20391Z" fill="url(#paint6_linear_144_265)"/>
<path d="M26.0172 31.2322H29.49V32.9629H26.0172V31.2322Z" fill="url(#paint7_linear_144_265)"/>
<path d="M26.0172 3.4727H29.49V5.20341H26.0172V3.4727Z" fill="url(#paint8_linear_144_265)"/>
<path d="M24.2876 24.2868H26.0183V26.0289H24.2876V24.2868Z" fill="url(#paint9_linear_144_265)"/>
<path d="M10.4057 17.3524H12.1364V15.6103H24.2856V17.3524H26.0163V24.2866H27.7584V10.4068H26.0163V8.6761H24.2856V6.94539H12.1364V8.6761H10.4057V10.4068H8.67503V24.2866H10.4057V17.3524Z" fill="url(#paint10_linear_144_265)"/>
<path d="M22.5563 32.9634H26.0178V34.7055H22.5563V32.9634Z" fill="url(#paint11_linear_144_265)"/>
<path d="M22.5563 26.029H24.287V27.7597H22.5563V26.029Z" fill="url(#paint12_linear_144_265)"/>
<path d="M22.5563 19.0828H24.287V22.5557H22.5563V19.0828Z" fill="url(#paint13_linear_144_265)"/>
<path d="M22.5563 1.73042H26.0178V3.47252H22.5563V1.73042Z" fill="url(#paint14_linear_144_265)"/>
<path d="M13.8797 34.7056H22.556V36.4363H13.8797V34.7056Z" fill="url(#paint15_linear_144_265)"/>
<path d="M13.8797 27.7595H22.556V29.4902H13.8797V27.7595Z" fill="url(#paint16_linear_144_265)"/>
<path d="M15.6109 24.2868H20.8145V26.0289H15.6109V24.2868Z" fill="url(#paint17_linear_144_265)"/>
<path d="M13.8797 0H22.556V1.73071H13.8797V0Z" fill="url(#paint18_linear_144_265)"/>
<path d="M10.4078 32.9634H13.8806V34.7055H10.4078V32.9634Z" fill="url(#paint19_linear_144_265)"/>
<path d="M12.1375 26.029H13.8796V27.7597H12.1375V26.029Z" fill="url(#paint20_linear_144_265)"/>
<path d="M12.1375 19.0828H13.8796V22.5557H12.1375V19.0828Z" fill="url(#paint21_linear_144_265)"/>
<path d="M10.4078 1.73042H13.8806V3.47252H10.4078V1.73042Z" fill="url(#paint22_linear_144_265)"/>
<path d="M10.4078 24.2868H12.1385V26.0289H10.4078V24.2868Z" fill="url(#paint23_linear_144_265)"/>
<path d="M6.93434 31.2322H10.4071V32.9629H6.93434V31.2322Z" fill="url(#paint24_linear_144_265)"/>
<path d="M6.93434 3.4727H10.4071V5.20341H6.93434V3.4727Z" fill="url(#paint25_linear_144_265)"/>
<path d="M5.20312 29.4907H6.93383V31.2328H5.20312V29.4907Z" fill="url(#paint26_linear_144_265)"/>
<path d="M5.20312 5.20391H6.93383V6.94601H5.20312V5.20391Z" fill="url(#paint27_linear_144_265)"/>
<path d="M3.47349 26.029H5.2042V29.4904H3.47349V26.029Z" fill="url(#paint28_linear_144_265)"/>
<path d="M3.47349 6.94539H5.2042V10.4068H3.47349V6.94539Z" fill="url(#paint29_linear_144_265)"/>
<path d="M1.72964 22.5555H3.47173V26.0284H1.72964V22.5555Z" fill="url(#paint30_linear_144_265)"/>
<path d="M1.72964 10.407H3.47173V13.8798H1.72964V10.407Z" fill="url(#paint31_linear_144_265)"/>
<path d="M0 13.8805H1.73071V22.5568H0V13.8805Z" fill="url(#paint32_linear_144_265)"/>
<defs>
<linearGradient id="paint0_linear_144_265" x1="18.6408" y1="0" x2="18.6408" y2="37.0001" gradientUnits="userSpaceOnUse">
<stop stop-color="#C2FF00"/>
<stop offset="1" stop-color="#4DC9E2"/>
</linearGradient>
<linearGradient id="paint1_linear_144_265" x1="18.6408" y1="0" x2="18.6408" y2="37.0001" gradientUnits="userSpaceOnUse">
<stop stop-color="#C2FF00"/>
<stop offset="1" stop-color="#4DC9E2"/>
</linearGradient>
<linearGradient id="paint2_linear_144_265" x1="18.6408" y1="0" x2="18.6408" y2="37.0001" gradientUnits="userSpaceOnUse">
<stop stop-color="#C2FF00"/>
<stop offset="1" stop-color="#4DC9E2"/>
</linearGradient>
<linearGradient id="paint3_linear_144_265" x1="18.6408" y1="0" x2="18.6408" y2="37.0001" gradientUnits="userSpaceOnUse">
<stop stop-color="#C2FF00"/>
<stop offset="1" stop-color="#4DC9E2"/>
</linearGradient>
<linearGradient id="paint4_linear_144_265" x1="18.6408" y1="0" x2="18.6408" y2="37.0001" gradientUnits="userSpaceOnUse">
<stop stop-color="#C2FF00"/>
<stop offset="1" stop-color="#4DC9E2"/>
</linearGradient>
<linearGradient id="paint5_linear_144_265" x1="18.6408" y1="0" x2="18.6408" y2="37.0001" gradientUnits="userSpaceOnUse">
<stop stop-color="#C2FF00"/>
<stop offset="1" stop-color="#4DC9E2"/>
</linearGradient>
<linearGradient id="paint6_linear_144_265" x1="18.6408" y1="0" x2="18.6408" y2="37.0001" gradientUnits="userSpaceOnUse">
<stop stop-color="#C2FF00"/>
<stop offset="1" stop-color="#4DC9E2"/>
</linearGradient>
<linearGradient id="paint7_linear_144_265" x1="18.6408" y1="0" x2="18.6408" y2="37.0001" gradientUnits="userSpaceOnUse">
<stop stop-color="#C2FF00"/>
<stop offset="1" stop-color="#4DC9E2"/>
</linearGradient>
<linearGradient id="paint8_linear_144_265" x1="18.6408" y1="0" x2="18.6408" y2="37.0001" gradientUnits="userSpaceOnUse">
<stop stop-color="#C2FF00"/>
<stop offset="1" stop-color="#4DC9E2"/>
</linearGradient>
<linearGradient id="paint9_linear_144_265" x1="18.6408" y1="0" x2="18.6408" y2="37.0001" gradientUnits="userSpaceOnUse">
<stop stop-color="#C2FF00"/>
<stop offset="1" stop-color="#4DC9E2"/>
</linearGradient>
<linearGradient id="paint10_linear_144_265" x1="18.6408" y1="0" x2="18.6408" y2="37.0001" gradientUnits="userSpaceOnUse">
<stop stop-color="#C2FF00"/>
<stop offset="1" stop-color="#4DC9E2"/>
</linearGradient>
<linearGradient id="paint11_linear_144_265" x1="18.6408" y1="0" x2="18.6408" y2="37.0001" gradientUnits="userSpaceOnUse">
<stop stop-color="#C2FF00"/>
<stop offset="1" stop-color="#4DC9E2"/>
</linearGradient>
<linearGradient id="paint12_linear_144_265" x1="18.6408" y1="0" x2="18.6408" y2="37.0001" gradientUnits="userSpaceOnUse">
<stop stop-color="#C2FF00"/>
<stop offset="1" stop-color="#4DC9E2"/>
</linearGradient>
<linearGradient id="paint13_linear_144_265" x1="18.6408" y1="0" x2="18.6408" y2="37.0001" gradientUnits="userSpaceOnUse">
<stop stop-color="#C2FF00"/>
<stop offset="1" stop-color="#4DC9E2"/>
</linearGradient>
<linearGradient id="paint14_linear_144_265" x1="18.6408" y1="0" x2="18.6408" y2="37.0001" gradientUnits="userSpaceOnUse">
<stop stop-color="#C2FF00"/>
<stop offset="1" stop-color="#4DC9E2"/>
</linearGradient>
<linearGradient id="paint15_linear_144_265" x1="18.6408" y1="0" x2="18.6408" y2="37.0001" gradientUnits="userSpaceOnUse">
<stop stop-color="#C2FF00"/>
<stop offset="1" stop-color="#4DC9E2"/>
</linearGradient>
<linearGradient id="paint16_linear_144_265" x1="18.6408" y1="0" x2="18.6408" y2="37.0001" gradientUnits="userSpaceOnUse">
<stop stop-color="#C2FF00"/>
<stop offset="1" stop-color="#4DC9E2"/>
</linearGradient>
<linearGradient id="paint17_linear_144_265" x1="18.6408" y1="0" x2="18.6408" y2="37.0001" gradientUnits="userSpaceOnUse">
<stop stop-color="#C2FF00"/>
<stop offset="1" stop-color="#4DC9E2"/>
</linearGradient>
<linearGradient id="paint18_linear_144_265" x1="18.6408" y1="0" x2="18.6408" y2="37.0001" gradientUnits="userSpaceOnUse">
<stop stop-color="#C2FF00"/>
<stop offset="1" stop-color="#4DC9E2"/>
</linearGradient>
<linearGradient id="paint19_linear_144_265" x1="18.6408" y1="0" x2="18.6408" y2="37.0001" gradientUnits="userSpaceOnUse">
<stop stop-color="#C2FF00"/>
<stop offset="1" stop-color="#4DC9E2"/>
</linearGradient>
<linearGradient id="paint20_linear_144_265" x1="18.6408" y1="0" x2="18.6408" y2="37.0001" gradientUnits="userSpaceOnUse">
<stop stop-color="#C2FF00"/>
<stop offset="1" stop-color="#4DC9E2"/>
</linearGradient>
<linearGradient id="paint21_linear_144_265" x1="18.6408" y1="0" x2="18.6408" y2="37.0001" gradientUnits="userSpaceOnUse">
<stop stop-color="#C2FF00"/>
<stop offset="1" stop-color="#4DC9E2"/>
</linearGradient>
<linearGradient id="paint22_linear_144_265" x1="18.6408" y1="0" x2="18.6408" y2="37.0001" gradientUnits="userSpaceOnUse">
<stop stop-color="#C2FF00"/>
<stop offset="1" stop-color="#4DC9E2"/>
</linearGradient>
<linearGradient id="paint23_linear_144_265" x1="18.6408" y1="0" x2="18.6408" y2="37.0001" gradientUnits="userSpaceOnUse">
<stop stop-color="#C2FF00"/>
<stop offset="1" stop-color="#4DC9E2"/>
</linearGradient>
<linearGradient id="paint24_linear_144_265" x1="18.6408" y1="0" x2="18.6408" y2="37.0001" gradientUnits="userSpaceOnUse">
<stop stop-color="#C2FF00"/>
<stop offset="1" stop-color="#4DC9E2"/>
</linearGradient>
<linearGradient id="paint25_linear_144_265" x1="18.6408" y1="0" x2="18.6408" y2="37.0001" gradientUnits="userSpaceOnUse">
<stop stop-color="#C2FF00"/>
<stop offset="1" stop-color="#4DC9E2"/>
</linearGradient>
<linearGradient id="paint26_linear_144_265" x1="18.6408" y1="0" x2="18.6408" y2="37.0001" gradientUnits="userSpaceOnUse">
<stop stop-color="#C2FF00"/>
<stop offset="1" stop-color="#4DC9E2"/>
</linearGradient>
<linearGradient id="paint27_linear_144_265" x1="18.6408" y1="0" x2="18.6408" y2="37.0001" gradientUnits="userSpaceOnUse">
<stop stop-color="#C2FF00"/>
<stop offset="1" stop-color="#4DC9E2"/>
</linearGradient>
<linearGradient id="paint28_linear_144_265" x1="18.6408" y1="0" x2="18.6408" y2="37.0001" gradientUnits="userSpaceOnUse">
<stop stop-color="#C2FF00"/>
<stop offset="1" stop-color="#4DC9E2"/>
</linearGradient>
<linearGradient id="paint29_linear_144_265" x1="18.6408" y1="0" x2="18.6408" y2="37.0001" gradientUnits="userSpaceOnUse">
<stop stop-color="#C2FF00"/>
<stop offset="1" stop-color="#4DC9E2"/>
</linearGradient>
<linearGradient id="paint30_linear_144_265" x1="18.6408" y1="0" x2="18.6408" y2="37.0001" gradientUnits="userSpaceOnUse">
<stop stop-color="#C2FF00"/>
<stop offset="1" stop-color="#4DC9E2"/>
</linearGradient>
<linearGradient id="paint31_linear_144_265" x1="18.6408" y1="0" x2="18.6408" y2="37.0001" gradientUnits="userSpaceOnUse">
<stop stop-color="#C2FF00"/>
<stop offset="1" stop-color="#4DC9E2"/>
</linearGradient>
<linearGradient id="paint32_linear_144_265" x1="18.6408" y1="0" x2="18.6408" y2="37.0001" gradientUnits="userSpaceOnUse">
<stop stop-color="#C2FF00"/>
<stop offset="1" stop-color="#4DC9E2"/>
</linearGradient>
</defs>
</svg>
