<svg width="38" height="37" viewBox="0 0 38 37" fill="none" xmlns="http://www.w3.org/2000/svg">
<path d="M35.5511 21.3893H33.809V19.6586H32.0783V17.9165H30.3476V0.563753H12.9948V10.9822H11.2527V7.50941H7.79128V2.30586H6.04918V7.50941H2.57635V10.9822H0.845629V37H35.5511V26.5929H37.2819V23.1201H35.5511V21.3893ZM4.31846 9.24013H9.52201V10.9822H4.31846V9.24013ZM12.9948 23.1201H11.2527V26.5929H12.9948V35.2693H2.57635V12.713H12.9948V23.1201ZM14.7256 2.30586H28.6055V14.4551H26.8748V12.713H25.1327V10.9822H23.4019V12.713H21.6712V14.4551H19.9291V16.1858H18.1984V17.9165H16.4677V19.6586H14.7256V2.30586ZM33.809 35.2693H28.6055V28.335H26.8748V35.2693H21.6712V33.5385H23.4019V31.7964H21.6712V28.335H19.9291V35.2693H14.7256V23.1201H16.4677V21.3893H18.1984V19.6586H19.9291V17.9165H21.6712V16.1858H23.4019V14.4551H25.1327V16.1858H26.8748V17.9165H28.6055V19.6586H30.3476V21.3893H32.0783V23.1201H33.809V35.2693Z" fill="#077F97"/>
<path d="M18.199 23.1195H30.3482V24.8616H18.199V23.1195Z" fill="#077F97"/>
<path d="M21.6693 26.593H26.8729V28.3351H21.6693V26.593Z" fill="#077F97"/>
<path d="M23.4021 4.03568H26.8749V7.50851H23.4021V4.03568Z" fill="#077F97"/>
<path d="M16.4677 9.23963H19.9292V12.7125H16.4677V9.23963Z" fill="#077F97"/>
<path d="M16.4677 4.03568H19.9292V7.50851H16.4677V4.03568Z" fill="#077F97"/>
<path d="M6.04878 30.0657H9.52161V33.5385H6.04878V30.0657Z" fill="#077F97"/>
<path d="M6.04878 23.1195H9.52161V26.5923H6.04878V23.1195Z" fill="#077F97"/>
<path d="M6.04878 16.1851H9.52161V19.6579H6.04878V16.1851Z" fill="#077F97"/>
<path d="M34.7055 20.8256H32.9634V19.0949H31.2327V17.3528H29.502V0H12.1492V10.4185H10.4071V6.94566H6.94566V1.74211H5.20355V6.94566H1.73072V10.4185H0V36.4362H34.7055V26.0291H36.4362V22.5563H34.7055V20.8256ZM3.47283 8.67638H8.67638V10.4185H3.47283V8.67638ZM12.1492 22.5563H10.4071V26.0291H12.1492V34.7055H1.73072V12.1492H12.1492V22.5563ZM13.8799 1.74211H27.7598V13.8913H26.0291V12.1492H24.287V10.4185H22.5563V12.1492H20.8256V13.8913H19.0835V15.622H17.3528V17.3528H15.622V19.0949H13.8799V1.74211ZM32.9634 34.7055H27.7598V27.7712H26.0291V34.7055H20.8256V32.9748H22.5563V31.2327H20.8256V27.7712H19.0835V34.7055H13.8799V22.5563H15.622V20.8256H17.3528V19.0949H19.0835V17.3528H20.8256V15.622H22.5563V13.8913H24.287V15.622H26.0291V17.3528H27.7598V19.0949H29.502V20.8256H31.2327V22.5563H32.9634V34.7055Z" fill="url(#paint0_linear_144_284)"/>
<path d="M17.3533 22.5557H29.5025V24.2978H17.3533V22.5557Z" fill="url(#paint1_linear_144_284)"/>
<path d="M20.8237 26.0292H26.0272V27.7713H20.8237V26.0292Z" fill="url(#paint2_linear_144_284)"/>
<path d="M22.5565 3.47193H26.0293V6.94476H22.5565V3.47193Z" fill="url(#paint3_linear_144_284)"/>
<path d="M15.6221 8.67588H19.0835V12.1487H15.6221V8.67588Z" fill="url(#paint4_linear_144_284)"/>
<path d="M15.6221 3.47193H19.0835V6.94476H15.6221V3.47193Z" fill="url(#paint5_linear_144_284)"/>
<path d="M5.20316 29.5019H8.67598V32.9748H5.20316V29.5019Z" fill="url(#paint6_linear_144_284)"/>
<path d="M5.20316 22.5557H8.67598V26.0285H5.20316V22.5557Z" fill="url(#paint7_linear_144_284)"/>
<path d="M5.20316 15.6213H8.67598V19.0941H5.20316V15.6213Z" fill="url(#paint8_linear_144_284)"/>
<defs>
<linearGradient id="paint0_linear_144_284" x1="18.6409" y1="0" x2="18.6409" y2="37" gradientUnits="userSpaceOnUse">
<stop stop-color="#C2FF00"/>
<stop offset="1" stop-color="#4DC9E2"/>
</linearGradient>
<linearGradient id="paint1_linear_144_284" x1="18.6409" y1="0" x2="18.6409" y2="37" gradientUnits="userSpaceOnUse">
<stop stop-color="#C2FF00"/>
<stop offset="1" stop-color="#4DC9E2"/>
</linearGradient>
<linearGradient id="paint2_linear_144_284" x1="18.6409" y1="0" x2="18.6409" y2="37" gradientUnits="userSpaceOnUse">
<stop stop-color="#C2FF00"/>
<stop offset="1" stop-color="#4DC9E2"/>
</linearGradient>
<linearGradient id="paint3_linear_144_284" x1="18.6409" y1="0" x2="18.6409" y2="37" gradientUnits="userSpaceOnUse">
<stop stop-color="#C2FF00"/>
<stop offset="1" stop-color="#4DC9E2"/>
</linearGradient>
<linearGradient id="paint4_linear_144_284" x1="18.6409" y1="0" x2="18.6409" y2="37" gradientUnits="userSpaceOnUse">
<stop stop-color="#C2FF00"/>
<stop offset="1" stop-color="#4DC9E2"/>
</linearGradient>
<linearGradient id="paint5_linear_144_284" x1="18.6409" y1="0" x2="18.6409" y2="37" gradientUnits="userSpaceOnUse">
<stop stop-color="#C2FF00"/>
<stop offset="1" stop-color="#4DC9E2"/>
</linearGradient>
<linearGradient id="paint6_linear_144_284" x1="18.6409" y1="0" x2="18.6409" y2="37" gradientUnits="userSpaceOnUse">
<stop stop-color="#C2FF00"/>
<stop offset="1" stop-color="#4DC9E2"/>
</linearGradient>
<linearGradient id="paint7_linear_144_284" x1="18.6409" y1="0" x2="18.6409" y2="37" gradientUnits="userSpaceOnUse">
<stop stop-color="#C2FF00"/>
<stop offset="1" stop-color="#4DC9E2"/>
</linearGradient>
<linearGradient id="paint8_linear_144_284" x1="18.6409" y1="0" x2="18.6409" y2="37" gradientUnits="userSpaceOnUse">
<stop stop-color="#C2FF00"/>
<stop offset="1" stop-color="#4DC9E2"/>
</linearGradient>
</defs>
</svg>
