<svg width="34" height="37" viewBox="0 0 34 37" fill="none" xmlns="http://www.w3.org/2000/svg">
<path d="M32.077 19.6466H33.8077V28.3229H32.077V19.6466Z" fill="url(#paint0_linear_144_219)"/>
<path d="M30.3363 2.29417H32.0784V9.23978H30.3363V2.29417Z" fill="url(#paint1_linear_144_219)"/>
<path d="M30.3374 19.6475H32.0795V17.9168H30.3374V16.1747H28.6067V33.5273H30.3374V30.0545H32.0795V28.3238H30.3374V19.6475Z" fill="url(#paint2_linear_144_219)"/>
<path d="M28.6067 9.24036H30.3374V10.9711H28.6067V9.24036Z" fill="url(#paint3_linear_144_219)"/>
<path d="M28.6067 0.563749H30.3374V2.29446H28.6067V0.563749Z" fill="url(#paint4_linear_144_219)"/>
<path d="M26.8628 33.5271H28.6049V35.2692H26.8628V33.5271Z" fill="url(#paint5_linear_144_219)"/>
<path d="M26.8628 14.4443H28.6049V16.175H26.8628V14.4443Z" fill="url(#paint6_linear_144_219)"/>
<path d="M25.1316 19.6466H26.8623V23.1194H25.1316V19.6466Z" fill="url(#paint7_linear_144_219)"/>
<path d="M25.1316 4.03645H26.8623V7.49786H25.1316V4.03645Z" fill="url(#paint8_linear_144_219)"/>
<path d="M7.77996 35.2694H26.8633V37.0001H7.77996V35.2694Z" fill="url(#paint9_linear_144_219)"/>
<path d="M21.6581 17.917H25.1309V19.6477H21.6581V17.917Z" fill="url(#paint10_linear_144_219)"/>
<path d="M23.402 7.49808H25.1327V9.24018H23.402V7.49808Z" fill="url(#paint11_linear_144_219)"/>
<path d="M23.402 2.29417H25.1327V4.03627H23.402V2.29417Z" fill="url(#paint12_linear_144_219)"/>
<path d="M21.6581 23.1193H25.1309V24.85H21.6581V23.1193Z" fill="url(#paint13_linear_144_219)"/>
<path d="M11.2534 28.3232V30.0539H12.9842V31.796H14.7263V33.5267H19.9298V31.796H21.6605V30.0539H23.4026V28.3232H11.2534Z" fill="url(#paint14_linear_144_219)"/>
<path d="M19.9285 19.6466H21.6592V23.1194H19.9285V19.6466Z" fill="url(#paint15_linear_144_219)"/>
<path d="M14.7254 26.5921H19.9289V24.85H18.1868V23.1193H16.4561V24.85H14.7254V26.5921Z" fill="url(#paint16_linear_144_219)"/>
<path d="M12.9831 19.6466H14.7252V23.1194H12.9831V19.6466Z" fill="url(#paint17_linear_144_219)"/>
<path d="M9.52065 23.1193H12.9821V24.85H9.52065V23.1193Z" fill="url(#paint18_linear_144_219)"/>
<path d="M9.52065 17.917H12.9821V19.6477H9.52065V17.917Z" fill="url(#paint19_linear_144_219)"/>
<path d="M26.8633 14.4436V12.7129H18.187V9.24007H19.9291V7.49797H21.6598V2.29446H19.9291V0.563749H14.7256V2.29446H12.9835V7.49797H14.7256V9.24007H16.4563V12.7129H7.77996V14.4436H26.8633Z" fill="url(#paint20_linear_144_219)"/>
<path d="M9.52065 7.49808H11.2514V9.24018H9.52065V7.49808Z" fill="url(#paint21_linear_144_219)"/>
<path d="M9.52065 2.29417H11.2514V4.03627H9.52065V2.29417Z" fill="url(#paint22_linear_144_219)"/>
<path d="M7.77996 19.6466H9.52206V23.1194H7.77996V19.6466Z" fill="url(#paint23_linear_144_219)"/>
<path d="M7.77996 4.03645H9.52206V7.49786H7.77996V4.03645Z" fill="url(#paint24_linear_144_219)"/>
<path d="M6.04874 33.5271H7.77945V35.2692H6.04874V33.5271Z" fill="url(#paint25_linear_144_219)"/>
<path d="M6.04874 14.4443H7.77945V16.175H6.04874V14.4443Z" fill="url(#paint26_linear_144_219)"/>
<path d="M6.04806 16.1747H4.30597V17.9168H2.57526V19.6475H4.30597V28.3238H2.57526V30.0545H4.30597V33.5273H6.04806V16.1747Z" fill="url(#paint27_linear_144_219)"/>
<path d="M4.30647 9.24036H6.04857V10.9711H4.30647V9.24036Z" fill="url(#paint28_linear_144_219)"/>
<path d="M4.30647 0.563749H6.04857V2.29446H4.30647V0.563749Z" fill="url(#paint29_linear_144_219)"/>
<path d="M2.57526 2.29417H4.30597V9.23978H2.57526V2.29417Z" fill="url(#paint30_linear_144_219)"/>
<path d="M0.845623 19.6466H2.57633V28.3229H0.845623V19.6466Z" fill="url(#paint31_linear_144_219)"/>
<path d="M31.2314 19.0828H32.9621V27.7592H31.2314V19.0828Z" fill="#1D1D1D"/>
<path d="M29.4907 1.73042H31.2328V8.67603H29.4907V1.73042Z" fill="#1D1D1D"/>
<path d="M29.4917 19.0837H31.2338V17.353H29.4917V15.6109H27.761V32.9636H29.4917V29.4908H31.2338V27.7601H29.4917V19.0837Z" fill="#1D1D1D"/>
<path d="M27.761 8.67661H29.4917V10.4073H27.761V8.67661Z" fill="#1D1D1D"/>
<path d="M27.761 0H29.4917V1.73071H27.761V0Z" fill="#1D1D1D"/>
<path d="M26.0172 32.9634H27.7593V34.7055H26.0172V32.9634Z" fill="#1D1D1D"/>
<path d="M26.0172 13.8805H27.7593V15.6112H26.0172V13.8805Z" fill="#1D1D1D"/>
<path d="M24.286 19.0828H26.0167V22.5557H24.286V19.0828Z" fill="#1D1D1D"/>
<path d="M24.286 3.4727H26.0167V6.93411H24.286V3.4727Z" fill="#1D1D1D"/>
<path d="M6.93434 34.7056H26.0177V36.4363H6.93434V34.7056Z" fill="#1D1D1D"/>
<path d="M20.8125 17.3532H24.2853V19.0839H20.8125V17.3532Z" fill="#1D1D1D"/>
<path d="M22.5563 6.93434H24.287V8.67643H22.5563V6.93434Z" fill="#1D1D1D"/>
<path d="M22.5563 1.73042H24.287V3.47252H22.5563V1.73042Z" fill="#1D1D1D"/>
<path d="M20.8125 22.5555H24.2853V24.2863H20.8125V22.5555Z" fill="#1D1D1D"/>
<path d="M10.4078 27.7595V29.4902H12.1385V31.2323H13.8806V32.963H19.0841V31.2323H20.8149V29.4902H22.5569V27.7595H10.4078Z" fill="#1D1D1D"/>
<path d="M19.0829 19.0828H20.8136V22.5557H19.0829V19.0828Z" fill="#1D1D1D"/>
<path d="M13.8797 26.0284H19.0832V24.2863H17.3411V22.5555H15.6104V24.2863H13.8797V26.0284Z" fill="#1D1D1D"/>
<path d="M12.1375 19.0828H13.8796V22.5557H12.1375V19.0828Z" fill="#1D1D1D"/>
<path d="M8.67503 22.5555H12.1364V24.2863H8.67503V22.5555Z" fill="#1D1D1D"/>
<path d="M8.67503 17.3532H12.1364V19.0839H8.67503V17.3532Z" fill="#1D1D1D"/>
<path d="M26.0177 13.8798V12.1491H17.3414V8.67632H19.0835V6.93422H20.8142V1.73071H19.0835V0H13.8799V1.73071H12.1379V6.93422H13.8799V8.67632H15.6107V12.1491H6.93434V13.8798H26.0177Z" fill="#1D1D1D"/>
<path d="M8.67503 6.93434H10.4057V8.67643H8.67503V6.93434Z" fill="#1D1D1D"/>
<path d="M8.67503 1.73042H10.4057V3.47252H8.67503V1.73042Z" fill="#1D1D1D"/>
<path d="M6.93434 19.0828H8.67643V22.5557H6.93434V19.0828Z" fill="#1D1D1D"/>
<path d="M6.93434 3.4727H8.67643V6.93411H6.93434V3.4727Z" fill="#1D1D1D"/>
<path d="M5.20312 32.9634H6.93383V34.7055H5.20312V32.9634Z" fill="#1D1D1D"/>
<path d="M5.20312 13.8805H6.93383V15.6112H5.20312V13.8805Z" fill="#1D1D1D"/>
<path d="M5.20244 15.6109H3.46034V17.353H1.72964V19.0837H3.46034V27.7601H1.72964V29.4908H3.46034V32.9636H5.20244V15.6109Z" fill="#1D1D1D"/>
<path d="M3.46085 8.67661H5.20294V10.4073H3.46085V8.67661Z" fill="#1D1D1D"/>
<path d="M3.46085 0H5.20294V1.73071H3.46085V0Z" fill="#1D1D1D"/>
<path d="M1.72964 1.73042H3.46034V8.67603H1.72964V1.73042Z" fill="#1D1D1D"/>
<path d="M0 19.0828H1.73071V27.7592H0V19.0828Z" fill="#1D1D1D"/>
<defs>
<linearGradient id="paint0_linear_144_219" x1="1.71153" y1="19.6467" x2="1.71153" y2="28.323" gradientUnits="userSpaceOnUse">
<stop stop-color="#C2FF00"/>
<stop offset="1" stop-color="#CE6CBF"/>
</linearGradient>
<linearGradient id="paint1_linear_144_219" x1="1.71153" y1="19.6467" x2="1.71153" y2="28.323" gradientUnits="userSpaceOnUse">
<stop stop-color="#C2FF00"/>
<stop offset="1" stop-color="#CE6CBF"/>
</linearGradient>
<linearGradient id="paint2_linear_144_219" x1="1.71153" y1="19.6467" x2="1.71153" y2="28.323" gradientUnits="userSpaceOnUse">
<stop stop-color="#C2FF00"/>
<stop offset="1" stop-color="#CE6CBF"/>
</linearGradient>
<linearGradient id="paint3_linear_144_219" x1="1.71153" y1="19.6467" x2="1.71153" y2="28.323" gradientUnits="userSpaceOnUse">
<stop stop-color="#C2FF00"/>
<stop offset="1" stop-color="#CE6CBF"/>
</linearGradient>
<linearGradient id="paint4_linear_144_219" x1="1.71153" y1="19.6467" x2="1.71153" y2="28.323" gradientUnits="userSpaceOnUse">
<stop stop-color="#C2FF00"/>
<stop offset="1" stop-color="#CE6CBF"/>
</linearGradient>
<linearGradient id="paint5_linear_144_219" x1="1.71153" y1="19.6467" x2="1.71153" y2="28.323" gradientUnits="userSpaceOnUse">
<stop stop-color="#C2FF00"/>
<stop offset="1" stop-color="#CE6CBF"/>
</linearGradient>
<linearGradient id="paint6_linear_144_219" x1="1.71153" y1="19.6467" x2="1.71153" y2="28.323" gradientUnits="userSpaceOnUse">
<stop stop-color="#C2FF00"/>
<stop offset="1" stop-color="#CE6CBF"/>
</linearGradient>
<linearGradient id="paint7_linear_144_219" x1="1.71153" y1="19.6467" x2="1.71153" y2="28.323" gradientUnits="userSpaceOnUse">
<stop stop-color="#C2FF00"/>
<stop offset="1" stop-color="#CE6CBF"/>
</linearGradient>
<linearGradient id="paint8_linear_144_219" x1="1.71153" y1="19.6467" x2="1.71153" y2="28.323" gradientUnits="userSpaceOnUse">
<stop stop-color="#C2FF00"/>
<stop offset="1" stop-color="#CE6CBF"/>
</linearGradient>
<linearGradient id="paint9_linear_144_219" x1="1.71153" y1="19.6467" x2="1.71153" y2="28.323" gradientUnits="userSpaceOnUse">
<stop stop-color="#C2FF00"/>
<stop offset="1" stop-color="#CE6CBF"/>
</linearGradient>
<linearGradient id="paint10_linear_144_219" x1="1.71153" y1="19.6467" x2="1.71153" y2="28.323" gradientUnits="userSpaceOnUse">
<stop stop-color="#C2FF00"/>
<stop offset="1" stop-color="#CE6CBF"/>
</linearGradient>
<linearGradient id="paint11_linear_144_219" x1="1.71153" y1="19.6467" x2="1.71153" y2="28.323" gradientUnits="userSpaceOnUse">
<stop stop-color="#C2FF00"/>
<stop offset="1" stop-color="#CE6CBF"/>
</linearGradient>
<linearGradient id="paint12_linear_144_219" x1="1.71153" y1="19.6467" x2="1.71153" y2="28.323" gradientUnits="userSpaceOnUse">
<stop stop-color="#C2FF00"/>
<stop offset="1" stop-color="#CE6CBF"/>
</linearGradient>
<linearGradient id="paint13_linear_144_219" x1="1.71153" y1="19.6467" x2="1.71153" y2="28.323" gradientUnits="userSpaceOnUse">
<stop stop-color="#C2FF00"/>
<stop offset="1" stop-color="#CE6CBF"/>
</linearGradient>
<linearGradient id="paint14_linear_144_219" x1="1.71153" y1="19.6467" x2="1.71153" y2="28.323" gradientUnits="userSpaceOnUse">
<stop stop-color="#C2FF00"/>
<stop offset="1" stop-color="#CE6CBF"/>
</linearGradient>
<linearGradient id="paint15_linear_144_219" x1="1.71153" y1="19.6467" x2="1.71153" y2="28.323" gradientUnits="userSpaceOnUse">
<stop stop-color="#C2FF00"/>
<stop offset="1" stop-color="#CE6CBF"/>
</linearGradient>
<linearGradient id="paint16_linear_144_219" x1="1.71153" y1="19.6467" x2="1.71153" y2="28.323" gradientUnits="userSpaceOnUse">
<stop stop-color="#C2FF00"/>
<stop offset="1" stop-color="#CE6CBF"/>
</linearGradient>
<linearGradient id="paint17_linear_144_219" x1="1.71153" y1="19.6467" x2="1.71153" y2="28.323" gradientUnits="userSpaceOnUse">
<stop stop-color="#C2FF00"/>
<stop offset="1" stop-color="#CE6CBF"/>
</linearGradient>
<linearGradient id="paint18_linear_144_219" x1="1.71153" y1="19.6467" x2="1.71153" y2="28.323" gradientUnits="userSpaceOnUse">
<stop stop-color="#C2FF00"/>
<stop offset="1" stop-color="#CE6CBF"/>
</linearGradient>
<linearGradient id="paint19_linear_144_219" x1="1.71153" y1="19.6467" x2="1.71153" y2="28.323" gradientUnits="userSpaceOnUse">
<stop stop-color="#C2FF00"/>
<stop offset="1" stop-color="#CE6CBF"/>
</linearGradient>
<linearGradient id="paint20_linear_144_219" x1="1.71153" y1="19.6467" x2="1.71153" y2="28.323" gradientUnits="userSpaceOnUse">
<stop stop-color="#C2FF00"/>
<stop offset="1" stop-color="#CE6CBF"/>
</linearGradient>
<linearGradient id="paint21_linear_144_219" x1="1.71153" y1="19.6467" x2="1.71153" y2="28.323" gradientUnits="userSpaceOnUse">
<stop stop-color="#C2FF00"/>
<stop offset="1" stop-color="#CE6CBF"/>
</linearGradient>
<linearGradient id="paint22_linear_144_219" x1="1.71153" y1="19.6467" x2="1.71153" y2="28.323" gradientUnits="userSpaceOnUse">
<stop stop-color="#C2FF00"/>
<stop offset="1" stop-color="#CE6CBF"/>
</linearGradient>
<linearGradient id="paint23_linear_144_219" x1="1.71153" y1="19.6467" x2="1.71153" y2="28.323" gradientUnits="userSpaceOnUse">
<stop stop-color="#C2FF00"/>
<stop offset="1" stop-color="#CE6CBF"/>
</linearGradient>
<linearGradient id="paint24_linear_144_219" x1="1.71153" y1="19.6467" x2="1.71153" y2="28.323" gradientUnits="userSpaceOnUse">
<stop stop-color="#C2FF00"/>
<stop offset="1" stop-color="#CE6CBF"/>
</linearGradient>
<linearGradient id="paint25_linear_144_219" x1="1.71153" y1="19.6467" x2="1.71153" y2="28.323" gradientUnits="userSpaceOnUse">
<stop stop-color="#C2FF00"/>
<stop offset="1" stop-color="#CE6CBF"/>
</linearGradient>
<linearGradient id="paint26_linear_144_219" x1="1.71153" y1="19.6467" x2="1.71153" y2="28.323" gradientUnits="userSpaceOnUse">
<stop stop-color="#C2FF00"/>
<stop offset="1" stop-color="#CE6CBF"/>
</linearGradient>
<linearGradient id="paint27_linear_144_219" x1="1.71153" y1="19.6467" x2="1.71153" y2="28.323" gradientUnits="userSpaceOnUse">
<stop stop-color="#C2FF00"/>
<stop offset="1" stop-color="#CE6CBF"/>
</linearGradient>
<linearGradient id="paint28_linear_144_219" x1="1.71153" y1="19.6467" x2="1.71153" y2="28.323" gradientUnits="userSpaceOnUse">
<stop stop-color="#C2FF00"/>
<stop offset="1" stop-color="#CE6CBF"/>
</linearGradient>
<linearGradient id="paint29_linear_144_219" x1="1.71153" y1="19.6467" x2="1.71153" y2="28.323" gradientUnits="userSpaceOnUse">
<stop stop-color="#C2FF00"/>
<stop offset="1" stop-color="#CE6CBF"/>
</linearGradient>
<linearGradient id="paint30_linear_144_219" x1="1.71153" y1="19.6467" x2="1.71153" y2="28.323" gradientUnits="userSpaceOnUse">
<stop stop-color="#C2FF00"/>
<stop offset="1" stop-color="#CE6CBF"/>
</linearGradient>
<linearGradient id="paint31_linear_144_219" x1="1.71153" y1="19.6467" x2="1.71153" y2="28.323" gradientUnits="userSpaceOnUse">
<stop stop-color="#C2FF00"/>
<stop offset="1" stop-color="#CE6CBF"/>
</linearGradient>
</defs>
</svg>
