<svg width="77" height="119" viewBox="0 0 77 119" fill="none" xmlns="http://www.w3.org/2000/svg">
<path d="M46.0598 75.8398V88.1602H52.2402V82.0202H76.8406V69.6998H70.7006V75.8398H46.0598Z" fill="#077F97"/>
<path d="M64.5188 63.5216H70.6992V69.702H64.5188V63.5216Z" fill="#077F97"/>
<path d="M58.3826 100.482H64.5226V112.762H58.3826V100.482Z" fill="#077F97"/>
<path d="M58.3826 57.3798H64.5226V63.5198H58.3826V57.3798Z" fill="#077F97"/>
<path d="M52.2352 88.1616H58.3752V100.482H52.2352V88.1616Z" fill="#077F97"/>
<path d="M52.2352 51.2436H58.3752V57.3836H52.2352V51.2436Z" fill="#077F97"/>
<path d="M46.0598 112.762H58.3802V118.943H46.0598V112.762Z" fill="#077F97"/>
<path d="M46.0598 45.0626H52.2402V51.243H46.0598V45.0626Z" fill="#077F97"/>
<path d="M39.918 100.482H46.058V112.762H39.918V100.482Z" fill="#077F97"/>
<path d="M39.918 38.918H46.058V45.058H39.918V38.918Z" fill="#077F97"/>
<path d="M33.737 88.1616H39.9174L39.918 100.482L33.737 100.482V88.1616Z" fill="#077F97"/>
<path d="M33.737 32.7426H39.9174V38.923H33.737V32.7426Z" fill="#077F97"/>
<path d="M27.5952 82.0198H33.7352V88.1598H27.5952V82.0198Z" fill="#077F97"/>
<path d="M27.5952 26.6008H33.7352V32.7408H27.5952V26.6008Z" fill="#077F97"/>
<path d="M21.459 88.1616H27.599V94.3016H21.459V88.1616Z" fill="#077F97"/>
<path d="M21.459 20.4618H27.599V26.6018H21.459V20.4618Z" fill="#077F97"/>
<path d="M15.2724 94.3006H21.4528V100.481H15.2724V94.3006Z" fill="#077F97"/>
<path d="M15.2724 14.2808H21.4528V20.4612H15.2724V14.2808Z" fill="#077F97"/>
<path d="M3 2V106.622H15.28V100.482H9.14V14.28H15.28V8.14H9.14V2H3Z" fill="#077F97"/>
<path d="M43.0598 73.8398V86.1602H49.2402V80.0202H73.8406V67.6998H67.7006V73.8398H43.0598Z" fill="url(#paint0_linear_207_3342)"/>
<path d="M61.5188 61.5216H67.6992V67.702H61.5188V61.5216Z" fill="url(#paint1_linear_207_3342)"/>
<path d="M55.3826 98.4817H61.5226V110.762H55.3826V98.4817Z" fill="url(#paint2_linear_207_3342)"/>
<path d="M55.3826 55.3798H61.5226V61.5198H55.3826V55.3798Z" fill="url(#paint3_linear_207_3342)"/>
<path d="M49.2352 86.1616H55.3752V98.482H49.2352V86.1616Z" fill="url(#paint4_linear_207_3342)"/>
<path d="M49.2352 49.2436H55.3752V55.3836H49.2352V49.2436Z" fill="url(#paint5_linear_207_3342)"/>
<path d="M43.0598 110.762H55.3802V116.943H43.0598V110.762Z" fill="url(#paint6_linear_207_3342)"/>
<path d="M43.0598 43.0626H49.2402V49.243H43.0598V43.0626Z" fill="url(#paint7_linear_207_3342)"/>
<path d="M36.918 98.4817H43.058V110.762H36.918V98.4817Z" fill="url(#paint8_linear_207_3342)"/>
<path d="M36.918 36.918H43.058V43.058H36.918V36.918Z" fill="url(#paint9_linear_207_3342)"/>
<path d="M30.737 86.1616H36.9174L36.918 98.4817L30.737 98.482V86.1616Z" fill="url(#paint10_linear_207_3342)"/>
<path d="M30.737 30.7426H36.9174V36.923H30.737V30.7426Z" fill="url(#paint11_linear_207_3342)"/>
<path d="M24.5952 80.0198H30.7352V86.1598H24.5952V80.0198Z" fill="url(#paint12_linear_207_3342)"/>
<path d="M24.5952 24.6008H30.7352V30.7408H24.5952V24.6008Z" fill="url(#paint13_linear_207_3342)"/>
<path d="M18.459 86.1616H24.599V92.3016H18.459V86.1616Z" fill="url(#paint14_linear_207_3342)"/>
<path d="M18.459 18.4618H24.599V24.6018H18.459V18.4618Z" fill="url(#paint15_linear_207_3342)"/>
<path d="M12.2724 92.3006H18.4528V98.481H12.2724V92.3006Z" fill="url(#paint16_linear_207_3342)"/>
<path d="M12.2724 12.2808H18.4528V18.4612H12.2724V12.2808Z" fill="url(#paint17_linear_207_3342)"/>
<path d="M0 0V104.622H12.28V98.4824H6.14V12.28H12.28V6.14H6.14V0H0Z" fill="url(#paint18_linear_207_3342)"/>
<defs>
<linearGradient id="paint0_linear_207_3342" x1="38.4203" y1="0" x2="38.4203" y2="118.943" gradientUnits="userSpaceOnUse">
<stop stop-color="#C2FF00"/>
<stop offset="1" stop-color="#4DC9E2"/>
</linearGradient>
<linearGradient id="paint1_linear_207_3342" x1="38.4203" y1="0" x2="38.4203" y2="118.943" gradientUnits="userSpaceOnUse">
<stop stop-color="#C2FF00"/>
<stop offset="1" stop-color="#4DC9E2"/>
</linearGradient>
<linearGradient id="paint2_linear_207_3342" x1="38.4203" y1="0" x2="38.4203" y2="118.943" gradientUnits="userSpaceOnUse">
<stop stop-color="#C2FF00"/>
<stop offset="1" stop-color="#4DC9E2"/>
</linearGradient>
<linearGradient id="paint3_linear_207_3342" x1="38.4203" y1="0" x2="38.4203" y2="118.943" gradientUnits="userSpaceOnUse">
<stop stop-color="#C2FF00"/>
<stop offset="1" stop-color="#4DC9E2"/>
</linearGradient>
<linearGradient id="paint4_linear_207_3342" x1="38.4203" y1="0" x2="38.4203" y2="118.943" gradientUnits="userSpaceOnUse">
<stop stop-color="#C2FF00"/>
<stop offset="1" stop-color="#4DC9E2"/>
</linearGradient>
<linearGradient id="paint5_linear_207_3342" x1="38.4203" y1="0" x2="38.4203" y2="118.943" gradientUnits="userSpaceOnUse">
<stop stop-color="#C2FF00"/>
<stop offset="1" stop-color="#4DC9E2"/>
</linearGradient>
<linearGradient id="paint6_linear_207_3342" x1="38.4203" y1="0" x2="38.4203" y2="118.943" gradientUnits="userSpaceOnUse">
<stop stop-color="#C2FF00"/>
<stop offset="1" stop-color="#4DC9E2"/>
</linearGradient>
<linearGradient id="paint7_linear_207_3342" x1="38.4203" y1="0" x2="38.4203" y2="118.943" gradientUnits="userSpaceOnUse">
<stop stop-color="#C2FF00"/>
<stop offset="1" stop-color="#4DC9E2"/>
</linearGradient>
<linearGradient id="paint8_linear_207_3342" x1="38.4203" y1="0" x2="38.4203" y2="118.943" gradientUnits="userSpaceOnUse">
<stop stop-color="#C2FF00"/>
<stop offset="1" stop-color="#4DC9E2"/>
</linearGradient>
<linearGradient id="paint9_linear_207_3342" x1="38.4203" y1="0" x2="38.4203" y2="118.943" gradientUnits="userSpaceOnUse">
<stop stop-color="#C2FF00"/>
<stop offset="1" stop-color="#4DC9E2"/>
</linearGradient>
<linearGradient id="paint10_linear_207_3342" x1="38.4203" y1="0" x2="38.4203" y2="118.943" gradientUnits="userSpaceOnUse">
<stop stop-color="#C2FF00"/>
<stop offset="1" stop-color="#4DC9E2"/>
</linearGradient>
<linearGradient id="paint11_linear_207_3342" x1="38.4203" y1="0" x2="38.4203" y2="118.943" gradientUnits="userSpaceOnUse">
<stop stop-color="#C2FF00"/>
<stop offset="1" stop-color="#4DC9E2"/>
</linearGradient>
<linearGradient id="paint12_linear_207_3342" x1="38.4203" y1="0" x2="38.4203" y2="118.943" gradientUnits="userSpaceOnUse">
<stop stop-color="#C2FF00"/>
<stop offset="1" stop-color="#4DC9E2"/>
</linearGradient>
<linearGradient id="paint13_linear_207_3342" x1="38.4203" y1="0" x2="38.4203" y2="118.943" gradientUnits="userSpaceOnUse">
<stop stop-color="#C2FF00"/>
<stop offset="1" stop-color="#4DC9E2"/>
</linearGradient>
<linearGradient id="paint14_linear_207_3342" x1="38.4203" y1="0" x2="38.4203" y2="118.943" gradientUnits="userSpaceOnUse">
<stop stop-color="#C2FF00"/>
<stop offset="1" stop-color="#4DC9E2"/>
</linearGradient>
<linearGradient id="paint15_linear_207_3342" x1="38.4203" y1="0" x2="38.4203" y2="118.943" gradientUnits="userSpaceOnUse">
<stop stop-color="#C2FF00"/>
<stop offset="1" stop-color="#4DC9E2"/>
</linearGradient>
<linearGradient id="paint16_linear_207_3342" x1="38.4203" y1="0" x2="38.4203" y2="118.943" gradientUnits="userSpaceOnUse">
<stop stop-color="#C2FF00"/>
<stop offset="1" stop-color="#4DC9E2"/>
</linearGradient>
<linearGradient id="paint17_linear_207_3342" x1="38.4203" y1="0" x2="38.4203" y2="118.943" gradientUnits="userSpaceOnUse">
<stop stop-color="#C2FF00"/>
<stop offset="1" stop-color="#4DC9E2"/>
</linearGradient>
<linearGradient id="paint18_linear_207_3342" x1="38.4203" y1="0" x2="38.4203" y2="118.943" gradientUnits="userSpaceOnUse">
<stop stop-color="#C2FF00"/>
<stop offset="1" stop-color="#4DC9E2"/>
</linearGradient>
</defs>
</svg>
