<svg width="22" height="34" viewBox="0 0 22 34" fill="none" xmlns="http://www.w3.org/2000/svg">
<path d="M13.1663 21.679V25.2008H14.933V23.4456H21.965V19.9238H20.2099V21.679H13.1663Z" fill="#077F97"/>
<path d="M18.4428 18.1578H20.2095V19.9245H18.4428V18.1578Z" fill="#077F97"/>
<path d="M16.6888 28.7229H18.4439V32.2331H16.6888V28.7229Z" fill="#077F97"/>
<path d="M16.6888 16.4021H18.4439V18.1573H16.6888V16.4021Z" fill="#077F97"/>
<path d="M14.9315 25.2012H16.6867V28.723H14.9315V25.2012Z" fill="#077F97"/>
<path d="M14.9315 14.6481H16.6867V16.4032H14.9315V14.6481Z" fill="#077F97"/>
<path d="M13.1663 32.2334H16.6881V34H13.1663V32.2334Z" fill="#077F97"/>
<path d="M13.1663 12.8812H14.933V14.6479H13.1663V12.8812Z" fill="#077F97"/>
<path d="M11.4106 28.7229H13.1658V32.2331H11.4106V28.7229Z" fill="#077F97"/>
<path d="M11.4106 11.1248H13.1658V12.8799H11.4106V11.1248Z" fill="#077F97"/>
<path d="M9.64378 25.2012H11.4105L11.4106 28.7229L9.64378 28.723V25.2012Z" fill="#077F97"/>
<path d="M9.64378 9.35953H11.4105V11.1262H9.64378V9.35953Z" fill="#077F97"/>
<path d="M7.88814 23.4455H9.64327V25.2007H7.88814V23.4455Z" fill="#077F97"/>
<path d="M7.88814 7.60389H9.64327V9.35902H7.88814V7.60389Z" fill="#077F97"/>
<path d="M6.1341 25.2012H7.88923V26.9563H6.1341V25.2012Z" fill="#077F97"/>
<path d="M6.1341 5.84905H7.88923V7.60418H6.1341V5.84905Z" fill="#077F97"/>
<path d="M4.36564 26.956H6.13232V28.7227H4.36564V26.956Z" fill="#077F97"/>
<path d="M4.36564 4.08219H6.13232V5.84887H4.36564V4.08219Z" fill="#077F97"/>
<path d="M0.857556 0.571704V30.4782H4.36782V28.7231H2.61269V4.08197H4.36782V2.32684H2.61269V0.571704H0.857556Z" fill="#077F97"/>
<path d="M12.3087 21.1073V24.6291H14.0754V22.8739H21.1075V19.3521H19.3523V21.1073H12.3087Z" fill="url(#paint0_linear_144_302)"/>
<path d="M17.5853 17.5861H19.352V19.3528H17.5853V17.5861Z" fill="url(#paint1_linear_144_302)"/>
<path d="M15.8312 28.1512H17.5864V31.6614H15.8312V28.1512Z" fill="url(#paint2_linear_144_302)"/>
<path d="M15.8312 15.8304H17.5864V17.5856H15.8312V15.8304Z" fill="url(#paint3_linear_144_302)"/>
<path d="M14.074 24.6295H15.8291V28.1513H14.074V24.6295Z" fill="url(#paint4_linear_144_302)"/>
<path d="M14.074 14.0764H15.8291V15.8315H14.074V14.0764Z" fill="url(#paint5_linear_144_302)"/>
<path d="M12.3087 31.6617H15.8305V33.4283H12.3087V31.6617Z" fill="url(#paint6_linear_144_302)"/>
<path d="M12.3087 12.3095H14.0754V14.0762H12.3087V12.3095Z" fill="url(#paint7_linear_144_302)"/>
<path d="M10.5531 28.1512H12.3082V31.6614H10.5531V28.1512Z" fill="url(#paint8_linear_144_302)"/>
<path d="M10.5531 10.5531H12.3082V12.3082H10.5531V10.5531Z" fill="url(#paint9_linear_144_302)"/>
<path d="M8.78623 24.6295H10.5529L10.5531 28.1512L8.78623 28.1513V24.6295Z" fill="url(#paint10_linear_144_302)"/>
<path d="M8.78623 8.78783H10.5529V10.5545H8.78623V8.78783Z" fill="url(#paint11_linear_144_302)"/>
<path d="M7.03058 22.8738H8.78572V24.629H7.03058V22.8738Z" fill="url(#paint12_linear_144_302)"/>
<path d="M7.03058 7.03219H8.78572V8.78732H7.03058V7.03219Z" fill="url(#paint13_linear_144_302)"/>
<path d="M5.27654 24.6295H7.03167V26.3846H5.27654V24.6295Z" fill="url(#paint14_linear_144_302)"/>
<path d="M5.27654 5.27734H7.03167V7.03248H5.27654V5.27734Z" fill="url(#paint15_linear_144_302)"/>
<path d="M3.50808 26.3843H5.27476V28.151H3.50808V26.3843Z" fill="url(#paint16_linear_144_302)"/>
<path d="M3.50808 3.51049H5.27476V5.27716H3.50808V3.51049Z" fill="url(#paint17_linear_144_302)"/>
<path d="M0 0V29.9065H3.51026V28.1514H1.75513V3.51026H3.51026V1.75513H1.75513V0H0Z" fill="url(#paint18_linear_144_302)"/>
<defs>
<linearGradient id="paint0_linear_144_302" x1="10.9825" y1="0" x2="10.9825" y2="34" gradientUnits="userSpaceOnUse">
<stop stop-color="#C2FF00"/>
<stop offset="1" stop-color="#4DC9E2"/>
</linearGradient>
<linearGradient id="paint1_linear_144_302" x1="10.9825" y1="0" x2="10.9825" y2="34" gradientUnits="userSpaceOnUse">
<stop stop-color="#C2FF00"/>
<stop offset="1" stop-color="#4DC9E2"/>
</linearGradient>
<linearGradient id="paint2_linear_144_302" x1="10.9825" y1="0" x2="10.9825" y2="34" gradientUnits="userSpaceOnUse">
<stop stop-color="#C2FF00"/>
<stop offset="1" stop-color="#4DC9E2"/>
</linearGradient>
<linearGradient id="paint3_linear_144_302" x1="10.9825" y1="0" x2="10.9825" y2="34" gradientUnits="userSpaceOnUse">
<stop stop-color="#C2FF00"/>
<stop offset="1" stop-color="#4DC9E2"/>
</linearGradient>
<linearGradient id="paint4_linear_144_302" x1="10.9825" y1="0" x2="10.9825" y2="34" gradientUnits="userSpaceOnUse">
<stop stop-color="#C2FF00"/>
<stop offset="1" stop-color="#4DC9E2"/>
</linearGradient>
<linearGradient id="paint5_linear_144_302" x1="10.9825" y1="0" x2="10.9825" y2="34" gradientUnits="userSpaceOnUse">
<stop stop-color="#C2FF00"/>
<stop offset="1" stop-color="#4DC9E2"/>
</linearGradient>
<linearGradient id="paint6_linear_144_302" x1="10.9825" y1="0" x2="10.9825" y2="34" gradientUnits="userSpaceOnUse">
<stop stop-color="#C2FF00"/>
<stop offset="1" stop-color="#4DC9E2"/>
</linearGradient>
<linearGradient id="paint7_linear_144_302" x1="10.9825" y1="0" x2="10.9825" y2="34" gradientUnits="userSpaceOnUse">
<stop stop-color="#C2FF00"/>
<stop offset="1" stop-color="#4DC9E2"/>
</linearGradient>
<linearGradient id="paint8_linear_144_302" x1="10.9825" y1="0" x2="10.9825" y2="34" gradientUnits="userSpaceOnUse">
<stop stop-color="#C2FF00"/>
<stop offset="1" stop-color="#4DC9E2"/>
</linearGradient>
<linearGradient id="paint9_linear_144_302" x1="10.9825" y1="0" x2="10.9825" y2="34" gradientUnits="userSpaceOnUse">
<stop stop-color="#C2FF00"/>
<stop offset="1" stop-color="#4DC9E2"/>
</linearGradient>
<linearGradient id="paint10_linear_144_302" x1="10.9825" y1="0" x2="10.9825" y2="34" gradientUnits="userSpaceOnUse">
<stop stop-color="#C2FF00"/>
<stop offset="1" stop-color="#4DC9E2"/>
</linearGradient>
<linearGradient id="paint11_linear_144_302" x1="10.9825" y1="0" x2="10.9825" y2="34" gradientUnits="userSpaceOnUse">
<stop stop-color="#C2FF00"/>
<stop offset="1" stop-color="#4DC9E2"/>
</linearGradient>
<linearGradient id="paint12_linear_144_302" x1="10.9825" y1="0" x2="10.9825" y2="34" gradientUnits="userSpaceOnUse">
<stop stop-color="#C2FF00"/>
<stop offset="1" stop-color="#4DC9E2"/>
</linearGradient>
<linearGradient id="paint13_linear_144_302" x1="10.9825" y1="0" x2="10.9825" y2="34" gradientUnits="userSpaceOnUse">
<stop stop-color="#C2FF00"/>
<stop offset="1" stop-color="#4DC9E2"/>
</linearGradient>
<linearGradient id="paint14_linear_144_302" x1="10.9825" y1="0" x2="10.9825" y2="34" gradientUnits="userSpaceOnUse">
<stop stop-color="#C2FF00"/>
<stop offset="1" stop-color="#4DC9E2"/>
</linearGradient>
<linearGradient id="paint15_linear_144_302" x1="10.9825" y1="0" x2="10.9825" y2="34" gradientUnits="userSpaceOnUse">
<stop stop-color="#C2FF00"/>
<stop offset="1" stop-color="#4DC9E2"/>
</linearGradient>
<linearGradient id="paint16_linear_144_302" x1="10.9825" y1="0" x2="10.9825" y2="34" gradientUnits="userSpaceOnUse">
<stop stop-color="#C2FF00"/>
<stop offset="1" stop-color="#4DC9E2"/>
</linearGradient>
<linearGradient id="paint17_linear_144_302" x1="10.9825" y1="0" x2="10.9825" y2="34" gradientUnits="userSpaceOnUse">
<stop stop-color="#C2FF00"/>
<stop offset="1" stop-color="#4DC9E2"/>
</linearGradient>
<linearGradient id="paint18_linear_144_302" x1="10.9825" y1="0" x2="10.9825" y2="34" gradientUnits="userSpaceOnUse">
<stop stop-color="#C2FF00"/>
<stop offset="1" stop-color="#4DC9E2"/>
</linearGradient>
</defs>
</svg>
