<svg width="38" height="34" viewBox="0 0 38 34" fill="none" xmlns="http://www.w3.org/2000/svg">
<path d="M0.857562 32.2448H37.808V34H0.857562V32.2448Z" fill="#077F97"/>
<path d="M29.0088 0.571708V2.32685H27.2421V28.7233H29.0088V30.4784H34.2857V28.7233H36.0409V2.32685H34.2857V0.571708H29.0088Z" fill="#077F97"/>
<path d="M18.4542 25.2014H20.2093V26.9565H18.4542V25.2014Z" fill="#077F97"/>
<path d="M18.4542 19.924H20.2093V21.6791H18.4542V19.924Z" fill="#077F97"/>
<path d="M18.4542 14.6482H20.2093V16.4033H18.4542V14.6482Z" fill="#077F97"/>
<path d="M18.4542 9.37082H20.2093V11.126H18.4542V9.37082Z" fill="#077F97"/>
<path d="M20.2107 9.37093H21.9659V12.8812H20.2107V14.6479H21.9659V18.1697H20.2107V19.9249H21.9659V23.4467H20.2107V25.2019H21.9659V28.7237H23.7326V7.60423H21.9659V5.84909H16.6889V7.60423H20.2107V9.37093Z" fill="#077F97"/>
<path d="M21.9638 30.4786V28.7234H18.4535V26.9567H16.6868V23.4464H18.4535V21.6797H16.6868V18.1694H18.4535V16.4028H16.6868V12.8809H18.4535V11.1258H16.6868V7.60395H14.9317V28.7234H16.6868V30.4786H21.9638Z" fill="#077F97"/>
<path d="M9.65507 18.1699H11.4102V28.7239H9.65507V18.1699Z" fill="#077F97"/>
<path d="M4.38009 28.7231H9.65707V30.4782H4.38009V28.7231Z" fill="#077F97"/>
<path d="M4.38009 16.4031H9.65707V18.1697H4.38009V16.4031Z" fill="#077F97"/>
<path d="M2.61162 18.1699H4.37831V28.7239H2.61162V18.1699Z" fill="#077F97"/>
<path d="M0 31.6731H36.9504V33.4282H0V31.6731Z" fill="url(#paint0_linear_144_263)"/>
<path d="M28.1512 0V1.75514H26.3845V28.1516H28.1512V29.9067H33.4282V28.1516H35.1833V1.75514H33.4282V0H28.1512Z" fill="url(#paint1_linear_144_263)"/>
<path d="M17.5966 24.6297H19.3518V26.3848H17.5966V24.6297Z" fill="url(#paint2_linear_144_263)"/>
<path d="M17.5966 19.3523H19.3518V21.1074H17.5966V19.3523Z" fill="url(#paint3_linear_144_263)"/>
<path d="M17.5966 14.0765H19.3518V15.8316H17.5966V14.0765Z" fill="url(#paint4_linear_144_263)"/>
<path d="M17.5966 8.79911H19.3518V10.5543H17.5966V8.79911Z" fill="url(#paint5_linear_144_263)"/>
<path d="M19.3532 8.79922H21.1083V12.3095H19.3532V14.0762H21.1083V17.598H19.3532V19.3532H21.1083V22.875H19.3532V24.6302H21.1083V28.152H22.875V7.03253H21.1083V5.27738H15.8313V7.03253H19.3532V8.79922Z" fill="url(#paint6_linear_144_263)"/>
<path d="M21.1062 29.9068V28.1517H17.5959V26.385H15.8292V22.8747H17.5959V21.108H15.8292V17.5977H17.5959V15.8311H15.8292V12.3092H17.5959V10.5541H15.8292V7.03224H14.0741V28.1517H15.8292V29.9068H21.1062Z" fill="url(#paint7_linear_144_263)"/>
<path d="M8.79751 17.5982H10.5527V28.1522H8.79751V17.5982Z" fill="url(#paint8_linear_144_263)"/>
<path d="M3.52253 28.1514H8.79951V29.9065H3.52253V28.1514Z" fill="url(#paint9_linear_144_263)"/>
<path d="M3.52253 15.8313H8.79951V17.598H3.52253V15.8313Z" fill="url(#paint10_linear_144_263)"/>
<path d="M1.75405 17.5982H3.52075V28.1522H1.75405V17.5982Z" fill="url(#paint11_linear_144_263)"/>
<defs>
<linearGradient id="paint0_linear_144_263" x1="18.904" y1="0" x2="18.904" y2="34" gradientUnits="userSpaceOnUse">
<stop stop-color="#C2FF00"/>
<stop offset="1" stop-color="#4DC9E2"/>
</linearGradient>
<linearGradient id="paint1_linear_144_263" x1="18.904" y1="0" x2="18.904" y2="34" gradientUnits="userSpaceOnUse">
<stop stop-color="#C2FF00"/>
<stop offset="1" stop-color="#4DC9E2"/>
</linearGradient>
<linearGradient id="paint2_linear_144_263" x1="18.904" y1="0" x2="18.904" y2="34" gradientUnits="userSpaceOnUse">
<stop stop-color="#C2FF00"/>
<stop offset="1" stop-color="#4DC9E2"/>
</linearGradient>
<linearGradient id="paint3_linear_144_263" x1="18.904" y1="0" x2="18.904" y2="34" gradientUnits="userSpaceOnUse">
<stop stop-color="#C2FF00"/>
<stop offset="1" stop-color="#4DC9E2"/>
</linearGradient>
<linearGradient id="paint4_linear_144_263" x1="18.904" y1="0" x2="18.904" y2="34" gradientUnits="userSpaceOnUse">
<stop stop-color="#C2FF00"/>
<stop offset="1" stop-color="#4DC9E2"/>
</linearGradient>
<linearGradient id="paint5_linear_144_263" x1="18.904" y1="0" x2="18.904" y2="34" gradientUnits="userSpaceOnUse">
<stop stop-color="#C2FF00"/>
<stop offset="1" stop-color="#4DC9E2"/>
</linearGradient>
<linearGradient id="paint6_linear_144_263" x1="18.904" y1="0" x2="18.904" y2="34" gradientUnits="userSpaceOnUse">
<stop stop-color="#C2FF00"/>
<stop offset="1" stop-color="#4DC9E2"/>
</linearGradient>
<linearGradient id="paint7_linear_144_263" x1="18.904" y1="0" x2="18.904" y2="34" gradientUnits="userSpaceOnUse">
<stop stop-color="#C2FF00"/>
<stop offset="1" stop-color="#4DC9E2"/>
</linearGradient>
<linearGradient id="paint8_linear_144_263" x1="18.904" y1="0" x2="18.904" y2="34" gradientUnits="userSpaceOnUse">
<stop stop-color="#C2FF00"/>
<stop offset="1" stop-color="#4DC9E2"/>
</linearGradient>
<linearGradient id="paint9_linear_144_263" x1="18.904" y1="0" x2="18.904" y2="34" gradientUnits="userSpaceOnUse">
<stop stop-color="#C2FF00"/>
<stop offset="1" stop-color="#4DC9E2"/>
</linearGradient>
<linearGradient id="paint10_linear_144_263" x1="18.904" y1="0" x2="18.904" y2="34" gradientUnits="userSpaceOnUse">
<stop stop-color="#C2FF00"/>
<stop offset="1" stop-color="#4DC9E2"/>
</linearGradient>
<linearGradient id="paint11_linear_144_263" x1="18.904" y1="0" x2="18.904" y2="34" gradientUnits="userSpaceOnUse">
<stop stop-color="#C2FF00"/>
<stop offset="1" stop-color="#4DC9E2"/>
</linearGradient>
</defs>
</svg>
