<svg width="27" height="37" viewBox="0 0 27 37" fill="none" xmlns="http://www.w3.org/2000/svg">
<path d="M25.1316 16.1739H26.8623V33.5265H25.1316V16.1739Z" fill="#077F97"/>
<path d="M23.3909 33.5271H25.133V35.2692H23.3909V33.5271Z" fill="#077F97"/>
<path d="M4.30489 35.2694H23.3882V37.0001H4.30489V35.2694Z" fill="#077F97"/>
<path d="M19.9285 2.29338H21.6592V4.03548H19.9285V2.29338Z" fill="#077F97"/>
<path d="M16.4552 23.1194H14.7245V21.3887H16.4552V19.6466H11.2517V21.3887H9.50959V24.8501H11.2517V26.5922H12.9824V31.7957H14.7245V26.5922H16.4552V24.8501H18.1859V21.3887H16.4552V23.1194Z" fill="#077F97"/>
<path d="M7.77996 0.563749H19.9291V2.29446H7.77996V0.563749Z" fill="#077F97"/>
<path d="M6.04874 2.29338H7.77945V4.03548H6.04874V2.29338Z" fill="#077F97"/>
<path d="M25.1314 16.1742V14.4435H23.3893V4.03645H21.6586V14.4435H6.04806V4.03645H4.30597V14.4435H2.57526V16.1742H25.1314Z" fill="#077F97"/>
<path d="M2.57526 33.5271H4.30597V35.2692H2.57526V33.5271Z" fill="#077F97"/>
<path d="M0.845623 16.1739H2.57633V33.5265H0.845623V16.1739Z" fill="#077F97"/>
<path d="M24.286 15.6102H26.0167V32.9628H24.286V15.6102Z" fill="url(#paint0_linear_144_261)"/>
<path d="M22.5453 32.9634H24.2874V34.7055H22.5453V32.9634Z" fill="url(#paint1_linear_144_261)"/>
<path d="M3.45927 34.7056H22.5426V36.4363H3.45927V34.7056Z" fill="url(#paint2_linear_144_261)"/>
<path d="M19.0829 1.72964H20.8136V3.47173H19.0829V1.72964Z" fill="url(#paint3_linear_144_261)"/>
<path d="M15.6096 22.5557H13.8789V20.8249H15.6096V19.0828H10.4061V20.8249H8.66397V24.2864H10.4061V26.0285H12.1368V31.232H13.8789V26.0285H15.6096V24.2864H17.3403V20.8249H15.6096V22.5557Z" fill="url(#paint4_linear_144_261)"/>
<path d="M6.93434 0H19.0835V1.73071H6.93434V0Z" fill="url(#paint5_linear_144_261)"/>
<path d="M5.20312 1.72964H6.93383V3.47173H5.20312V1.72964Z" fill="url(#paint6_linear_144_261)"/>
<path d="M24.2858 15.6104V13.8797H22.5437V3.4727H20.813V13.8797H5.20244V3.4727H3.46034V13.8797H1.72963V15.6104H24.2858Z" fill="url(#paint7_linear_144_261)"/>
<path d="M1.72963 32.9634H3.46034V34.7055H1.72963V32.9634Z" fill="url(#paint8_linear_144_261)"/>
<path d="M0 15.6102H1.73071V32.9628H0V15.6102Z" fill="url(#paint9_linear_144_261)"/>
<defs>
<linearGradient id="paint0_linear_144_261" x1="13.4312" y1="0" x2="13.4312" y2="37.0001" gradientUnits="userSpaceOnUse">
<stop stop-color="#C2FF00"/>
<stop offset="1" stop-color="#4DC9E2"/>
</linearGradient>
<linearGradient id="paint1_linear_144_261" x1="13.4312" y1="0" x2="13.4312" y2="37.0001" gradientUnits="userSpaceOnUse">
<stop stop-color="#C2FF00"/>
<stop offset="1" stop-color="#4DC9E2"/>
</linearGradient>
<linearGradient id="paint2_linear_144_261" x1="13.4312" y1="0" x2="13.4312" y2="37.0001" gradientUnits="userSpaceOnUse">
<stop stop-color="#C2FF00"/>
<stop offset="1" stop-color="#4DC9E2"/>
</linearGradient>
<linearGradient id="paint3_linear_144_261" x1="13.4312" y1="0" x2="13.4312" y2="37.0001" gradientUnits="userSpaceOnUse">
<stop stop-color="#C2FF00"/>
<stop offset="1" stop-color="#4DC9E2"/>
</linearGradient>
<linearGradient id="paint4_linear_144_261" x1="13.4312" y1="0" x2="13.4312" y2="37.0001" gradientUnits="userSpaceOnUse">
<stop stop-color="#C2FF00"/>
<stop offset="1" stop-color="#4DC9E2"/>
</linearGradient>
<linearGradient id="paint5_linear_144_261" x1="13.4312" y1="0" x2="13.4312" y2="37.0001" gradientUnits="userSpaceOnUse">
<stop stop-color="#C2FF00"/>
<stop offset="1" stop-color="#4DC9E2"/>
</linearGradient>
<linearGradient id="paint6_linear_144_261" x1="13.4312" y1="0" x2="13.4312" y2="37.0001" gradientUnits="userSpaceOnUse">
<stop stop-color="#C2FF00"/>
<stop offset="1" stop-color="#4DC9E2"/>
</linearGradient>
<linearGradient id="paint7_linear_144_261" x1="13.4312" y1="0" x2="13.4312" y2="37.0001" gradientUnits="userSpaceOnUse">
<stop stop-color="#C2FF00"/>
<stop offset="1" stop-color="#4DC9E2"/>
</linearGradient>
<linearGradient id="paint8_linear_144_261" x1="13.4312" y1="0" x2="13.4312" y2="37.0001" gradientUnits="userSpaceOnUse">
<stop stop-color="#C2FF00"/>
<stop offset="1" stop-color="#4DC9E2"/>
</linearGradient>
<linearGradient id="paint9_linear_144_261" x1="13.4312" y1="0" x2="13.4312" y2="37.0001" gradientUnits="userSpaceOnUse">
<stop stop-color="#C2FF00"/>
<stop offset="1" stop-color="#4DC9E2"/>
</linearGradient>
</defs>
</svg>
