<svg width="40" height="51" viewBox="0 0 40 51" fill="none" xmlns="http://www.w3.org/2000/svg">
<path d="M37.0465 7.94981H39.4323V39.0442H37.0465V7.94981Z" fill="url(#paint0_linear_144_172)"></path>
<path d="M34.6469 43.8318H10.7414V41.446H8.33986V43.8318H5.95403V51.005H39.4342V43.8318H37.0484V39.0444H34.6469V43.8318ZM34.6469 48.6192H29.8752V46.2176H34.6469V48.6192Z" fill="url(#paint1_linear_144_172)"></path>
<path d="M32.2603 5.56328H37.0477V7.94911H32.2603V5.56328Z" fill="url(#paint2_linear_144_172)"></path>
<path d="M25.0855 29.4852H29.8729V31.8711H25.0855V29.4852Z" fill="url(#paint3_linear_144_172)"></path>
<path d="M13.1245 31.8707H20.2977V34.2565H13.1245V31.8707Z" fill="url(#paint4_linear_144_172)"></path>
<path d="M15.5104 22.2953H13.1245V24.6968H17.9119V17.5236H22.6993V24.6968H17.9119V27.0827H20.2977V31.87H22.6993V29.4842H25.0851V17.5236H29.8725V29.4842H32.2583V7.94887H29.8725V15.1221H17.9119V3.1615H15.5104V22.2953Z" fill="url(#paint5_linear_144_172)"></path>
<path d="M10.7402 0.777145H15.5118V3.16298H10.7402V0.777145Z" fill="url(#paint6_linear_144_172)"></path>
<path d="M10.7402 29.4852H13.126V31.8711H10.7402V29.4852Z" fill="url(#paint7_linear_144_172)"></path>
<path d="M13.1272 22.2953V19.9094H10.7414V3.1615H8.33986V19.9094H5.95403V22.2953H13.1272Z" fill="url(#paint8_linear_144_172)"></path>
<path d="M5.95403 39.0444H8.33986L8.33986 41.446H5.95403V39.0444Z" fill="url(#paint9_linear_144_172)"></path>
<path d="M3.56532 34.2572H5.95115V39.0446H3.56532V34.2572Z" fill="url(#paint10_linear_144_172)"></path>
<path d="M3.56532 22.2962H5.95115V24.6978H3.56532V22.2962Z" fill="url(#paint11_linear_144_172)"></path>
<path d="M1.16572 24.698H3.56725V34.257H1.16572V24.698Z" fill="url(#paint12_linear_144_172)"></path>
<path d="M35.8807 7.17267H38.2666V38.267H35.8807V7.17267Z" fill="#1D1D1D"></path>
<path d="M33.4811 43.0547H9.57568V40.6688H7.17415V43.0547H4.78831V50.2279H38.2685V43.0547H35.8827V38.2673H33.4811V43.0547ZM33.4811 47.842H28.7095V45.4405H33.4811V47.842Z" fill="#1D1D1D"></path>
<path d="M31.0946 4.78613H35.882V7.17197H31.0946V4.78613Z" fill="#1D1D1D"></path>
<path d="M23.9198 28.7081H28.7071V31.0939H23.9198V28.7081Z" fill="#1D1D1D"></path>
<path d="M11.9588 31.0935H19.132V33.4794H11.9588V31.0935Z" fill="#1D1D1D"></path>
<path d="M14.3446 21.5181H11.9588V23.9197H16.7462V16.7465H21.5335V23.9197H16.7462V26.3055H19.132V31.0929H21.5335V28.707H23.9194V16.7465H28.7067V28.707H31.0926V7.17173H28.7067V14.3449H16.7462V2.38436H14.3446V21.5181Z" fill="#1D1D1D"></path>
<path d="M9.57444 0H14.3461V2.38584H9.57444V0Z" fill="#1D1D1D"></path>
<path d="M9.57444 28.7081H11.9603V31.0939H9.57444V28.7081Z" fill="#1D1D1D"></path>
<path d="M11.9615 21.5181V19.1323H9.57568V2.38436H7.17415V19.1323H4.78831V21.5181H11.9615Z" fill="#1D1D1D"></path>
<path d="M4.78831 38.2673H7.17415L7.17415 40.6688H4.78831V38.2673Z" fill="#1D1D1D"></path>
<path d="M2.3996 33.4801H4.78543V38.2674H2.3996V33.4801Z" fill="#1D1D1D"></path>
<path d="M2.3996 21.5191H4.78543V23.9206H2.3996V21.5191Z" fill="#1D1D1D"></path>
<path d="M0 23.9209H2.40153V33.4799H0V23.9209Z" fill="#1D1D1D"></path>
<defs>
<linearGradient id="paint0_linear_144_172" x1="2.36573" y1="24.6979" x2="2.36573" y2="34.2569" gradientUnits="userSpaceOnUse">
<stop stop-color="#C2FF00"></stop>
<stop offset="1" stop-color="#CE6CBF"></stop>
</linearGradient>
<linearGradient id="paint1_linear_144_172" x1="2.36573" y1="24.6979" x2="2.36573" y2="34.2569" gradientUnits="userSpaceOnUse">
<stop stop-color="#C2FF00"></stop>
<stop offset="1" stop-color="#CE6CBF"></stop>
</linearGradient>
<linearGradient id="paint2_linear_144_172" x1="2.36573" y1="24.6979" x2="2.36573" y2="34.2569" gradientUnits="userSpaceOnUse">
<stop stop-color="#C2FF00"></stop>
<stop offset="1" stop-color="#CE6CBF"></stop>
</linearGradient>
<linearGradient id="paint3_linear_144_172" x1="2.36573" y1="24.6979" x2="2.36573" y2="34.2569" gradientUnits="userSpaceOnUse">
<stop stop-color="#C2FF00"></stop>
<stop offset="1" stop-color="#CE6CBF"></stop>
</linearGradient>
<linearGradient id="paint4_linear_144_172" x1="2.36573" y1="24.6979" x2="2.36573" y2="34.2569" gradientUnits="userSpaceOnUse">
<stop stop-color="#C2FF00"></stop>
<stop offset="1" stop-color="#CE6CBF"></stop>
</linearGradient>
<linearGradient id="paint5_linear_144_172" x1="2.36573" y1="24.6979" x2="2.36573" y2="34.2569" gradientUnits="userSpaceOnUse">
<stop stop-color="#C2FF00"></stop>
<stop offset="1" stop-color="#CE6CBF"></stop>
</linearGradient>
<linearGradient id="paint6_linear_144_172" x1="2.36573" y1="24.6979" x2="2.36573" y2="34.2569" gradientUnits="userSpaceOnUse">
<stop stop-color="#C2FF00"></stop>
<stop offset="1" stop-color="#CE6CBF"></stop>
</linearGradient>
<linearGradient id="paint7_linear_144_172" x1="2.36573" y1="24.6979" x2="2.36573" y2="34.2569" gradientUnits="userSpaceOnUse">
<stop stop-color="#C2FF00"></stop>
<stop offset="1" stop-color="#CE6CBF"></stop>
</linearGradient>
<linearGradient id="paint8_linear_144_172" x1="2.36573" y1="24.6979" x2="2.36573" y2="34.2569" gradientUnits="userSpaceOnUse">
<stop stop-color="#C2FF00"></stop>
<stop offset="1" stop-color="#CE6CBF"></stop>
</linearGradient>
<linearGradient id="paint9_linear_144_172" x1="2.36573" y1="24.6979" x2="2.36573" y2="34.2569" gradientUnits="userSpaceOnUse">
<stop stop-color="#C2FF00"></stop>
<stop offset="1" stop-color="#CE6CBF"></stop>
</linearGradient>
<linearGradient id="paint10_linear_144_172" x1="2.36573" y1="24.6979" x2="2.36573" y2="34.2569" gradientUnits="userSpaceOnUse">
<stop stop-color="#C2FF00"></stop>
<stop offset="1" stop-color="#CE6CBF"></stop>
</linearGradient>
<linearGradient id="paint11_linear_144_172" x1="2.36573" y1="24.6979" x2="2.36573" y2="34.2569" gradientUnits="userSpaceOnUse">
<stop stop-color="#C2FF00"></stop>
<stop offset="1" stop-color="#CE6CBF"></stop>
</linearGradient>
<linearGradient id="paint12_linear_144_172" x1="2.36573" y1="24.6979" x2="2.36573" y2="34.2569" gradientUnits="userSpaceOnUse">
<stop stop-color="#C2FF00"></stop>
<stop offset="1" stop-color="#CE6CBF"></stop>
</linearGradient>
</defs>
</svg>