<svg viewBox="0 0 36 27" fill="none" xmlns="http://www.w3.org/2000/svg">
<defs><linearGradient id="ri-discount-g" x1="2.60968" y1="16.3944" x2="2.60968" y2="25.1831" gradientUnits="userSpaceOnUse"> <stop style="stop-color:var(--ri-accent-start,#C2FF00)"/> <stop offset="1" style="stop-color:var(--ri-accent-end,#CE6CBF)"/> </linearGradient></defs>
<path d="M32.4826 9.35985V11.1245H36.0004V2.33587H34.2473V9.35985H32.4826Z" fill="url(#ri-discount-g)"/>
<path d="M34.2473 18.1476V25.1831H36.0004V16.3945H32.4826V18.1476H34.2473Z" fill="url(#ri-discount-g)"/>
<path d="M2.61019 25.1834H34.247V26.9365H2.61019V25.1834Z" fill="url(#ri-discount-g)"/>
<path d="M30.7306 11.1248H32.4837V16.3957H30.7306V11.1248Z" fill="url(#ri-discount-g)"/>
<path d="M25.4589 14.6312H21.9412V16.3959H20.188V19.9136H21.9412V21.6668H25.4589V19.9136H27.212V16.3959H25.4589V14.6312Z" fill="url(#ri-discount-g)"/>
<path d="M23.705 7.60663H21.9404V9.35975H20.1872V11.1244H18.4226V12.8775H16.6695V14.6306H14.9164V16.3953H13.1517V18.1484H11.3986V19.913H9.64549V21.6661H13.1517V19.913H14.9164V18.1484H16.6695V16.3953H18.4226V14.6306H20.1872V12.8775H21.9404V11.1244H23.705V9.35975H25.4581V7.60663H27.2112V5.85352H23.705V7.60663Z" fill="url(#ri-discount-g)"/>
<path d="M11.3986 12.8775H14.9164V11.1244H16.6695V7.60663H14.9164V5.85352H11.3986V7.60663H9.64549V11.1244H11.3986V12.8775Z" fill="url(#ri-discount-g)"/>
<path d="M4.36222 11.1248H6.12687V16.3957H4.36222V11.1248Z" fill="url(#ri-discount-g)"/>
<path d="M2.61019 0.571046H34.247V2.33569H2.61019V0.571046Z" fill="url(#ri-discount-g)"/>
<path d="M2.60968 9.35985V2.33587H0.85657V11.1245H4.36279V9.35985H2.60968Z" fill="url(#ri-discount-g)"/>
<path d="M2.60968 18.1476H4.36279V16.3945H0.85657V25.1831H2.60968V18.1476Z" fill="url(#ri-discount-g)"/>
<path d="M31.626 8.78881V10.5535H35.1438V1.76482H33.3907V8.78881H31.626Z" fill="currentColor"/>
<path d="M33.3907 17.5765V24.6121H35.1438V15.8234H31.626V17.5765H33.3907Z" fill="currentColor"/>
<path d="M1.75362 24.6123H33.3904V26.3655H1.75362V24.6123Z" fill="currentColor"/>
<path d="M29.874 10.5537H31.6271V15.8246H29.874V10.5537Z" fill="currentColor"/>
<path d="M24.6023 14.0602H21.0846V15.8248H19.3315V19.3426H21.0846V21.0957H24.6023V19.3426H26.3555V15.8248H24.6023V14.0602Z" fill="currentColor"/>
<path d="M22.8484 7.03559H21.0838V8.7887H19.3307V10.5533H17.566V12.3065H15.8129V14.0596H14.0598V15.8242H12.2952V17.5773H10.542V19.342H8.78892V21.0951H12.2952V19.342H14.0598V17.5773H15.8129V15.8242H17.566V14.0596H19.3307V12.3065H21.0838V10.5533H22.8484V8.7887H24.6015V7.03559H26.3547V5.28247H22.8484V7.03559Z" fill="currentColor"/>
<path d="M10.542 12.3065H14.0598V10.5533H15.8129V7.03559H14.0598V5.28247H10.542V7.03559H8.78892V10.5533H10.542V12.3065Z" fill="currentColor"/>
<path d="M3.50565 10.5537H5.2703V15.8246H3.50565V10.5537Z" fill="currentColor"/>
<path d="M1.75362 0H33.3904V1.76465H1.75362V0Z" fill="currentColor"/>
<path d="M1.75311 8.78881V1.76482H0V10.5535H3.50623V8.78881H1.75311Z" fill="currentColor"/>
<path d="M1.75311 17.5765H3.50623V15.8234H0V24.6121H1.75311V17.5765Z" fill="currentColor"/>
</svg>
